<?xml version="1.0" standalone="no"?>
<!DOCTYPE svg PUBLIC "-//W3C//DTD SVG 20010904//EN"
 "http://www.w3.org/TR/2001/REC-SVG-20010904/DTD/svg10.dtd">
<svg version="1.0" xmlns="http://www.w3.org/2000/svg"
 width="330.000000pt" height="330.000000pt" viewBox="0 0 330.000000 330.000000"
 preserveAspectRatio="xMidYMid meet">
<metadata>
Created by potrace 1.11, written by Peter Selinger 2001-2013
</metadata>
<g transform="translate(0.000000,330.000000) scale(0.100000,-0.100000)"
fill="#000000" stroke="none">
<path d="M20 3280 c-20 -20 -20 -33 -20 -1630 0 -1597 0 -1610 20 -1630 20
-20 33 -20 1630 -20 1597 0 1610 0 1630 20 20 20 20 33 20 1630 0 1597 0 1610
-20 1630 -20 20 -33 20 -1630 20 -1597 0 -1610 0 -1630 -20z m1311 -1021 c47
-23 97 -81 122 -141 11 -26 23 -48 27 -48 3 0 20 19 37 43 51 71 112 128 160
149 59 26 158 28 213 3 40 -18 43 -18 133 1 68 14 128 19 232 18 277 -3 413
-63 484 -213 l26 -56 0 -385 c0 -357 1 -388 18 -414 22 -33 72 -56 125 -56 45
0 62 -14 62 -51 0 -35 -11 -43 -100 -70 -58 -18 -98 -23 -180 -23 -179 1 -234
28 -306 150 -10 17 -15 15 -59 -24 -121 -107 -300 -154 -453 -119 -42 10 -95
21 -117 24 -43 6 -75 27 -75 51 0 8 -15 44 -32 81 -29 58 -33 75 -32 146 1
108 27 168 105 239 l59 53 0 110 0 111 -36 21 c-49 29 -77 94 -72 169 l3 57
-33 -2 c-40 -1 -94 -42 -127 -94 l-25 -39 0 -370 c0 -225 4 -379 10 -390 5
-10 25 -28 44 -39 40 -25 49 -52 29 -80 -14 -20 -23 -21 -223 -21 l-210 0 -15
24 c-20 30 -6 66 25 66 11 0 29 9 40 20 20 20 21 29 18 418 -3 391 -3 398 -26
443 -49 101 -159 87 -233 -29 l-29 -46 0 -365 c1 -268 4 -372 13 -388 7 -12
28 -32 47 -45 39 -27 49 -58 25 -82 -14 -14 -46 -16 -233 -16 -119 0 -222 4
-228 8 -6 4 -14 16 -18 28 -7 24 12 44 63 64 60 24 61 34 61 472 0 391 0 393
-24 443 -14 32 -33 55 -52 65 -43 21 -64 41 -64 60 0 39 30 48 210 62 112 10
179 11 188 5 8 -6 12 -39 12 -96 l0 -86 27 35 c51 66 117 132 147 147 67 34
171 35 237 2z"/>
<path d="M2091 2169 c-31 -19 -33 -22 -27 -62 17 -119 18 -163 2 -201 -35 -85
-7 -166 58 -166 42 0 203 55 228 77 18 16 19 29 16 133 -3 131 -21 179 -78
218 -45 30 -150 31 -199 1z"/>
<path d="M2214 1642 c-86 -45 -102 -57 -137 -103 -26 -34 -27 -41 -27 -150 0
-88 4 -120 16 -137 53 -76 206 -67 277 17 l27 33 0 169 c0 156 -2 171 -20 189
-28 28 -55 25 -136 -18z"/>
</g>
</svg>
