<svg width="1440" height="1024" viewBox="0 0 1440 1024" fill="none" xmlns="http://www.w3.org/2000/svg">
<g clip-path="url(#clip0)">
<rect width="1440" height="1024" fill="#0C1D26"/>
<g opacity="0.2" filter="url(#filter0_d)">
<path d="M1440 596.22V1024H-42V743.776C10.7809 738.146 84.4796 716.492 179.047 656.665C292.149 585.084 445.822 566.255 564.761 564.275C646.244 562.914 727.385 571.782 804.829 589.538C891.954 609.48 1059.88 633.527 1187.48 563.718C1328.55 486.527 1403.56 550.19 1429.44 581.392C1436.59 590.033 1440 596.22 1440 596.22Z" fill="#071218"/>
</g>
<g opacity="0.2" filter="url(#filter1_d)">
<path d="M1489 687.043V1097.58H1476.09V1098H-323V596.436C-311.461 592.056 -299.764 587.51 -287.908 582.8C-35.245 482.396 308.181 455.974 573.989 453.203C756.111 451.224 937.4 463.752 1110.48 488.63C1201.9 501.772 1333.11 516.181 1476.09 517.606V672.813C1484.84 681.106 1489 687.043 1489 687.043Z" fill="#112A37"/>
</g>
<path d="M114.554 975.43L112.284 966.476C108.258 964.77 104.14 963.292 99.9486 962.05L99.662 966.212L98.4997 961.627C93.3014 960.143 89.765 959.489 89.765 959.489C89.765 959.489 94.5419 977.654 104.561 991.541L116.235 993.592L107.166 994.9C108.427 996.416 109.782 997.852 111.223 999.199C125.798 1012.73 142.032 1018.93 147.482 1013.06C152.933 1007.19 145.536 991.464 130.961 977.935C126.221 973.741 120.867 970.298 115.084 967.726L114.554 975.43Z" fill="#0F2734"/>
<g filter="url(#filter2_d)">
<path d="M136.144 965.706L138.829 956.868C136.265 953.327 133.503 949.933 130.557 946.703L128.161 950.117L129.536 945.592C125.853 941.635 123.164 939.247 123.164 939.247C123.164 939.247 117.863 957.266 119.262 974.333L128.196 982.123L119.756 978.554C120.051 980.505 120.469 982.434 121.006 984.332C126.49 1003.45 137.179 1017.15 144.88 1014.94C152.581 1012.73 154.378 995.446 148.894 976.331C147.005 970.291 144.201 964.576 140.58 959.386L136.144 965.706Z" fill="#0F2734"/>
</g>
<path d="M298.439 973.255L296.306 964.839C292.522 963.236 288.652 961.847 284.712 960.68L284.443 964.591L283.35 960.282C278.464 958.887 275.141 958.272 275.141 958.272C275.141 958.272 279.63 975.345 289.047 988.398L300.02 990.325L291.496 991.554C292.681 992.98 293.954 994.329 295.309 995.595C309.007 1008.31 324.265 1014.14 329.388 1008.63C334.511 1003.11 327.559 988.325 313.86 975.609C309.405 971.667 304.373 968.431 298.938 966.014L298.439 973.255Z" fill="#132630"/>
<g filter="url(#filter3_d)">
<path d="M318.732 964.115L321.255 955.809C318.845 952.48 316.25 949.291 313.481 946.255L311.228 949.464L312.52 945.211C309.059 941.491 306.531 939.247 306.531 939.247C306.531 939.247 301.55 956.183 302.864 972.224L311.261 979.546L303.328 976.192C303.606 978.024 303.999 979.838 304.504 981.622C309.658 999.588 319.704 1012.47 326.942 1010.39C334.18 1008.32 335.87 992.068 330.715 974.102C328.94 968.425 326.304 963.054 322.901 958.175L318.732 964.115Z" fill="#132630"/>
</g>
<path d="M656.815 977.787L655.74 973.547C653.834 972.739 651.883 972.039 649.898 971.451L649.762 973.422L649.212 971.25C646.75 970.547 645.075 970.238 645.075 970.238C646.589 975.638 648.955 980.763 652.083 985.418L657.612 986.39L653.316 987.009C653.913 987.727 654.555 988.407 655.238 989.045C662.141 995.453 669.829 998.392 672.411 995.611C674.992 992.83 671.489 985.381 664.586 978.974C662.341 976.987 659.805 975.357 657.067 974.139L656.815 977.787Z" fill="#132630"/>
<g filter="url(#filter4_d)">
<path d="M667.041 973.182L668.313 968.996C667.098 967.319 665.79 965.712 664.395 964.182L663.26 965.799L663.911 963.656C662.167 961.781 660.893 960.65 660.893 960.65C659.398 966.056 658.774 971.666 659.045 977.268L663.276 980.958L659.279 979.267C659.419 980.191 659.617 981.105 659.871 982.004C662.469 991.057 667.531 997.548 671.178 996.502C674.826 995.455 675.677 987.268 673.08 978.214C672.185 975.354 670.857 972.647 669.142 970.189L667.041 973.182Z" fill="#132630"/>
</g>
<g filter="url(#filter5_d)">
<path d="M749.47 970.461L748.056 964.883C745.549 963.821 742.983 962.9 740.372 962.126L740.193 964.719L739.469 961.863C736.231 960.938 734.028 960.531 734.028 960.531C734.028 960.531 737.004 971.847 743.245 980.498L750.518 981.776L744.868 982.591C745.654 983.535 746.498 984.43 747.395 985.269C756.475 993.697 766.588 997.564 769.984 993.906C773.379 990.248 768.771 980.45 759.691 972.022C756.739 969.409 753.403 967.264 749.801 965.662L749.47 970.461Z" fill="#0E2531"/>
</g>
<path d="M762.921 964.404L764.593 958.898C762.996 956.692 761.275 954.578 759.44 952.566L757.947 954.693L758.804 951.874C756.509 949.408 754.834 947.921 754.834 947.921C754.834 947.921 751.532 959.146 752.403 969.778L757.969 974.631L752.711 972.408C752.895 973.623 753.155 974.825 753.49 976.007C756.906 987.915 763.565 996.453 768.362 995.077C773.16 993.7 774.28 982.931 770.863 971.023C769.687 967.26 767.94 963.7 765.684 960.467L762.921 964.404Z" fill="#132630"/>
<path d="M595.344 961.132L604.694 958.077C606.218 953.677 607.492 949.196 608.51 944.653L604.068 944.647L608.856 943.083C610.059 937.453 610.5 933.649 610.5 933.649C610.5 933.649 591.543 940.029 577.508 951.672L576.168 964.224L574.127 954.681C572.606 956.13 571.177 957.673 569.85 959.301C556.523 975.759 551.094 993.453 557.725 998.822C564.356 1004.19 580.534 995.202 593.861 978.744C597.977 973.407 601.25 967.471 603.567 961.142L595.344 961.132Z" fill="#0E2531"/>
<g filter="url(#filter6_d)">
<path d="M681.989 977.831L684.846 974.519C684.415 972.494 683.869 970.494 683.213 968.531L681.52 969.55L682.983 967.854C682.147 965.433 681.441 963.884 681.441 963.884C677.885 968.221 675.043 973.098 673.023 978.33L675.398 983.417L672.428 980.253C672.182 981.154 671.992 982.07 671.861 982.995C670.571 992.325 672.572 1000.31 676.331 1000.83C680.089 1001.35 684.183 994.207 685.473 984.878C685.813 981.9 685.695 978.887 685.122 975.945L681.989 977.831Z" fill="#132630"/>
</g>
<path d="M691.626 983.567L695.784 982.209C696.462 980.252 697.028 978.259 697.481 976.238L695.506 976.236L697.635 975.54C698.17 973.036 698.366 971.344 698.366 971.344C693.08 973.22 688.127 975.926 683.693 979.36L683.097 984.943L682.189 980.698C681.513 981.343 680.877 982.029 680.287 982.753C674.36 990.073 671.946 997.942 674.895 1000.33C677.843 1002.72 685.039 998.72 690.966 991.4C692.797 989.027 694.252 986.387 695.283 983.572L691.626 983.567Z" fill="#132630"/>
<path d="M0 1024C0 1024 1134.62 952 1440 1024H0Z" fill="#0F2734"/>
<g filter="url(#filter7_d)">
<path d="M431.59 973.027L450.73 961.737C448.142 957.315 444.833 953.357 440.94 950.027L404.83 961.297L433.13 944.657C426.125 940.819 418.241 938.872 410.254 939.007C402.267 939.141 394.454 941.353 387.582 945.425C380.71 949.497 375.016 955.288 371.062 962.228C367.108 969.169 365.029 977.019 365.03 985.007C365.03 1010.42 385.62 1011.3 411.03 1011.3C436.44 1011.3 457.03 1010.42 457.03 985.007C457.039 978.578 455.693 972.22 453.08 966.347L431.59 973.027Z" fill="#183444"/>
<path opacity="0.1" d="M436.46 997.737C434.423 995.693 432.146 993.904 429.68 992.407C426.2 990.097 422.61 987.747 418.51 986.957C414.91 986.267 411.2 986.847 407.51 986.647C401.143 986.254 395.151 983.506 390.7 978.937C388.09 976.237 386.03 972.937 382.89 970.847C379.5 968.627 375.2 968.147 371.18 968.697C370.015 968.873 368.86 969.11 367.72 969.407C365.915 974.413 364.995 979.695 365 985.017C365 1010.43 385.59 1011.31 411 1011.31C423.33 1011.31 434.52 1011.1 442.78 1007.98L441.4 1005.4C440.084 1002.64 438.424 1000.07 436.46 997.737V997.737Z" fill="black"/>
</g>
<g filter="url(#filter8_d)">
<path d="M1368 985.127C1368.01 987.735 1367.74 990.336 1367.2 992.887C1367.1 993.367 1366.99 993.887 1366.88 994.297C1364.04 1005.69 1356.03 1014.02 1346.47 1014.55C1346.15 1014.55 1345.83 1014.55 1345.47 1014.55C1335.36 1014.55 1326.81 1005.83 1323.99 993.817C1323.91 993.497 1323.84 993.177 1323.77 992.817C1323.24 990.266 1322.97 987.665 1322.97 985.057C1322.97 968.787 1333.04 955.607 1345.47 955.607C1357.9 955.607 1368 968.877 1368 985.127Z" fill="#3F3D56"/>
<path d="M1416 930.277C1416.01 923.121 1414.33 916.063 1411.1 909.677L1384.64 917.907L1407.87 904.247C1403.98 898.617 1398.87 893.934 1392.92 890.543C1386.98 887.153 1380.34 885.141 1373.51 884.657C1372.43 883.01 1371.23 881.434 1369.94 879.937L1331.94 891.767L1363.11 873.447C1357.15 868.874 1350.15 865.839 1342.74 864.613C1335.33 863.387 1327.72 864.006 1320.61 866.416C1313.49 868.827 1307.07 872.953 1301.93 878.432C1296.79 883.91 1293.07 890.572 1291.11 897.827L1323.66 935.307L1288.35 909.757C1279.4 916.098 1273.03 925.446 1270.39 936.095C1267.75 946.745 1269.03 957.988 1274 967.773C1278.96 977.557 1287.27 985.233 1297.42 989.399C1307.57 993.565 1318.88 993.944 1329.28 990.467C1338.7 993.917 1348.98 994.198 1358.56 991.267C1365.25 992.746 1372.18 992.705 1378.84 991.149C1385.51 989.593 1391.74 986.561 1397.08 982.276C1402.42 977.991 1406.72 972.562 1409.68 966.391C1412.65 960.219 1414.18 953.462 1414.18 946.617C1414.18 945.617 1414.18 944.617 1414.08 943.617C1415.38 939.29 1416.03 934.794 1416 930.277Z" fill="#183444"/>
<path opacity="0.1" d="M1415.21 938.767C1401.24 936.114 1386.91 935.931 1372.87 938.227C1356.98 940.857 1340.74 946.637 1325.2 942.407C1316.08 939.927 1308.2 934.187 1299.29 931.007C1290.7 928 1281.44 927.443 1272.54 929.397C1269.15 937.505 1268.17 946.417 1269.71 955.07C1271.25 963.722 1275.24 971.748 1281.22 978.189C1287.2 984.63 1294.91 989.213 1303.42 991.39C1311.94 993.568 1320.9 993.247 1329.23 990.467C1338.65 993.917 1348.93 994.198 1358.51 991.267C1365.2 992.746 1372.13 992.705 1378.79 991.149C1385.46 989.593 1391.69 986.561 1397.03 982.276C1402.37 977.991 1406.67 972.562 1409.64 966.391C1412.6 960.219 1414.13 953.462 1414.13 946.617C1414.13 945.617 1414.13 944.617 1414.03 943.617C1414.52 942.024 1414.91 940.404 1415.21 938.767V938.767Z" fill="black"/>
</g>
<g filter="url(#filter9_d)">
<path d="M1269.82 235.85L1262.08 240.76L1266.78 232.21C1265.45 231.149 1263.8 230.562 1262.1 230.54H1261.97C1261.43 230.549 1260.9 230.512 1260.37 230.43L1257.7 232.11L1258.83 230.06C1256.97 229.415 1255.36 228.197 1254.24 226.58L1249.54 229.58L1252.54 224.19C1251.29 222.578 1249.7 221.265 1247.88 220.344C1246.06 219.424 1244.06 218.921 1242.02 218.87C1237.14 218.87 1232.79 221.77 1230.02 226.3C1229.19 227.66 1228.01 228.774 1226.6 229.527C1225.19 230.281 1223.61 230.648 1222.02 230.59H1221.76C1216.37 230.59 1212 236.71 1212 244.24C1212 251.77 1216.37 257.9 1221.76 257.9C1222.95 257.895 1224.11 257.603 1225.16 257.05C1226.99 256.157 1229 255.673 1231.04 255.632C1233.08 255.59 1235.1 255.992 1236.97 256.81C1238.54 257.521 1240.25 257.892 1241.97 257.9C1243.69 257.894 1245.39 257.533 1246.97 256.84C1248.82 256.036 1250.83 255.64 1252.85 255.678C1254.87 255.716 1256.86 256.187 1258.68 257.06C1259.72 257.607 1260.87 257.895 1262.04 257.9C1267.43 257.9 1271.8 251.78 1271.8 244.24C1271.86 241.321 1271.18 238.435 1269.82 235.85V235.85Z" fill="#122833"/>
<path d="M203.82 234.98L196.08 239.89L200.78 231.34C199.449 230.279 197.802 229.692 196.1 229.67H195.97C195.435 229.679 194.899 229.642 194.37 229.56L191.7 231.24L192.83 229.19C190.97 228.545 189.363 227.327 188.24 225.71L183.54 228.71L186.54 223.32C185.291 221.708 183.699 220.395 181.88 219.474C180.06 218.554 178.058 218.051 176.02 218C171.14 218 166.79 220.9 164.02 225.43C163.186 226.79 162.006 227.904 160.601 228.658C159.195 229.411 157.614 229.778 156.02 229.72H155.76C150.37 229.72 146 235.84 146 243.37C146 250.9 150.37 257.03 155.76 257.03C156.945 257.025 158.112 256.733 159.16 256.18C160.994 255.287 162.999 254.803 165.039 254.762C167.078 254.72 169.102 255.122 170.97 255.94C172.541 256.651 174.245 257.022 175.97 257.03C177.692 257.024 179.394 256.663 180.97 255.97C182.824 255.166 184.829 254.77 186.849 254.808C188.869 254.846 190.858 255.317 192.68 256.19C193.716 256.737 194.869 257.025 196.04 257.03C201.43 257.03 205.8 250.91 205.8 243.37C205.859 240.451 205.177 237.565 203.82 234.98V234.98Z" fill="#122833"/>
<path d="M1286.95 108.34L1299.38 116.23L1291.82 102.5C1293.96 100.797 1296.61 99.8539 1299.34 99.82H1299.54C1300.4 99.8329 1301.27 99.7693 1302.12 99.63L1306.34 102.3L1304.53 99.02C1307.51 97.9733 1310.09 96.0141 1311.9 93.42L1319.45 98.2L1314.68 89.54C1319.09 84.24 1325.04 81 1331.58 81C1339.43 81 1346.41 85.66 1350.92 92.93C1352.25 95.1055 1354.14 96.889 1356.39 98.0992C1358.63 99.3094 1361.16 99.9031 1363.71 99.82H1364.13C1372.79 99.82 1379.81 109.64 1379.81 121.75C1379.81 133.86 1372.81 143.68 1364.13 143.68C1362.23 143.67 1360.35 143.2 1358.67 142.31C1355.72 140.872 1352.49 140.094 1349.21 140.03C1345.93 139.966 1342.67 140.618 1339.67 141.94C1337.13 143.074 1334.38 143.66 1331.61 143.66C1328.83 143.66 1326.08 143.074 1323.54 141.94C1320.56 140.647 1317.34 140.01 1314.1 140.072C1310.85 140.134 1307.66 140.894 1304.73 142.3C1303.06 143.17 1301.2 143.629 1299.32 143.64C1290.66 143.64 1283.64 133.82 1283.64 121.71C1283.61 117.047 1284.75 112.45 1286.95 108.34V108.34Z" fill="#122833"/>
</g>
<g filter="url(#filter10_d)">
<path d="M207.751 325.85L215.756 330.76L210.895 322.21C212.272 321.149 213.975 320.562 215.735 320.54H215.87C216.423 320.549 216.977 320.512 217.524 320.43L220.286 322.11L219.117 320.06C221.04 319.415 222.702 318.197 223.864 316.58L228.725 319.58L225.622 314.19C226.914 312.578 228.56 311.265 230.442 310.344C232.324 309.424 234.394 308.921 236.502 308.87C241.549 308.87 246.047 311.77 248.912 316.3C249.774 317.66 250.995 318.774 252.449 319.527C253.902 320.281 255.537 320.648 257.186 320.59H257.455C263.029 320.59 267.548 326.71 267.548 334.24C267.548 341.77 263.029 347.9 257.455 347.9C256.229 347.895 255.022 347.603 253.938 347.05C252.042 346.157 249.968 345.673 247.859 345.632C245.75 345.59 243.657 345.992 241.724 346.81C240.099 347.521 238.337 347.892 236.553 347.9C234.773 347.894 233.013 347.533 231.383 346.84C229.465 346.036 227.392 345.64 225.303 345.678C223.213 345.716 221.157 346.187 219.272 347.06C218.201 347.607 217.009 347.895 215.797 347.9C210.223 347.9 205.704 341.78 205.704 334.24C205.643 331.321 206.347 328.435 207.751 325.85V325.85Z" fill="#122833"/>
<path d="M1310.2 324.98L1318.21 329.89L1313.35 321.34C1314.72 320.279 1316.43 319.692 1318.19 319.67H1318.32C1318.88 319.679 1319.43 319.642 1319.98 319.56L1322.74 321.24L1321.57 319.19C1323.49 318.545 1325.15 317.327 1326.32 315.71L1331.18 318.71L1328.07 313.32C1329.37 311.708 1331.01 310.395 1332.89 309.474C1334.78 308.554 1336.85 308.051 1338.95 308C1344 308 1348.5 310.9 1351.36 315.43C1352.23 316.79 1353.45 317.904 1354.9 318.658C1356.35 319.411 1357.99 319.778 1359.64 319.72H1359.91C1365.48 319.72 1370 325.84 1370 333.37C1370 340.9 1365.48 347.03 1359.91 347.03C1358.68 347.025 1357.47 346.733 1356.39 346.18C1354.49 345.287 1352.42 344.803 1350.31 344.762C1348.2 344.72 1346.11 345.122 1344.18 345.94C1342.55 346.651 1340.79 347.022 1339.01 347.03C1337.22 347.024 1335.46 346.663 1333.83 345.97C1331.92 345.166 1329.84 344.77 1327.75 344.808C1325.66 344.846 1323.61 345.317 1321.72 346.19C1320.65 346.737 1319.46 347.025 1318.25 347.03C1312.67 347.03 1308.16 340.91 1308.16 333.37C1308.09 330.451 1308.8 327.565 1310.2 324.98V324.98Z" fill="#122833"/>
<path d="M190.035 198.34L177.18 206.23L184.999 192.5C182.786 190.797 180.05 189.854 177.222 189.82H177.015C176.121 189.833 175.229 189.769 174.347 189.63L169.982 192.3L171.854 189.02C168.769 187.973 166.102 186.014 164.232 183.42L156.424 188.2L161.357 179.54C156.796 174.24 150.643 171 143.879 171C135.761 171 128.542 175.66 123.878 182.93C122.499 185.105 120.548 186.889 118.225 188.099C115.902 189.309 113.288 189.903 110.651 189.82H110.216C101.26 189.82 94.0001 199.64 94.0001 211.75C94.0001 223.86 101.239 233.68 110.216 233.68C112.185 233.67 114.122 233.2 115.863 232.31C118.914 230.872 122.252 230.094 125.646 230.03C129.039 229.966 132.406 230.618 135.513 231.94C138.137 233.074 140.979 233.66 143.853 233.66C146.728 233.66 149.57 233.074 152.194 231.94C155.274 230.647 158.605 230.01 161.961 230.072C165.318 230.134 168.622 230.894 171.647 232.3C173.376 233.17 175.294 233.629 177.242 233.64C186.199 233.64 193.459 223.82 193.459 211.71C193.491 207.047 192.314 202.45 190.035 198.34V198.34Z" fill="#122833"/>
</g>
<path opacity="0.03" d="M1348.38 77.43C1352.91 76.568 1357.59 77.0763 1361.82 78.89C1364.36 80.0238 1367.11 80.6098 1369.89 80.6098C1372.66 80.6098 1375.41 80.0238 1377.95 78.89C1380.96 77.572 1384.21 76.9233 1387.49 76.9889C1390.77 77.0545 1394 77.8329 1396.95 79.27C1398.63 80.157 1400.51 80.6236 1402.41 80.63C1410.1 80.63 1416.5 72.88 1417.84 62.63C1416.3 61.5119 1414.99 60.1019 1413.99 58.48C1409.48 51.22 1402.49 46.55 1394.65 46.55C1386.81 46.55 1379.9 51.16 1375.39 58.35C1374.04 60.5181 1372.16 62.3015 1369.92 63.5279C1367.68 64.7542 1365.16 65.3818 1362.61 65.35H1362.41C1356.27 65.36 1350.96 70.27 1348.38 77.43Z" fill="black"/>
</g>
<defs>
<filter id="filter0_d" x="-46" y="527" width="1490" height="505" filterUnits="userSpaceOnUse" color-interpolation-filters="sRGB">
<feFlood flood-opacity="0" result="BackgroundImageFix"/>
<feColorMatrix in="SourceAlpha" type="matrix" values="0 0 0 0 0 0 0 0 0 0 0 0 0 0 0 0 0 0 127 0"/>
<feOffset dy="4"/>
<feGaussianBlur stdDeviation="2"/>
<feColorMatrix type="matrix" values="0 0 0 0 0 0 0 0 0 0 0 0 0 0 0 0 0 0 0.25 0"/>
<feBlend mode="normal" in2="BackgroundImageFix" result="effect1_dropShadow"/>
<feBlend mode="normal" in="SourceGraphic" in2="effect1_dropShadow" result="shape"/>
</filter>
<filter id="filter1_d" x="-327" y="453" width="1820" height="653" filterUnits="userSpaceOnUse" color-interpolation-filters="sRGB">
<feFlood flood-opacity="0" result="BackgroundImageFix"/>
<feColorMatrix in="SourceAlpha" type="matrix" values="0 0 0 0 0 0 0 0 0 0 0 0 0 0 0 0 0 0 127 0"/>
<feOffset dy="4"/>
<feGaussianBlur stdDeviation="2"/>
<feColorMatrix type="matrix" values="0 0 0 0 0 0 0 0 0 0 0 0 0 0 0 0 0 0 0.25 0"/>
<feBlend mode="normal" in2="BackgroundImageFix" result="effect1_dropShadow"/>
<feBlend mode="normal" in="SourceGraphic" in2="effect1_dropShadow" result="shape"/>
</filter>
<filter id="filter2_d" x="115.027" y="939.247" width="41.0428" height="83.9292" filterUnits="userSpaceOnUse" color-interpolation-filters="sRGB">
<feFlood flood-opacity="0" result="BackgroundImageFix"/>
<feColorMatrix in="SourceAlpha" type="matrix" values="0 0 0 0 0 0 0 0 0 0 0 0 0 0 0 0 0 0 127 0"/>
<feOffset dy="4"/>
<feGaussianBlur stdDeviation="2"/>
<feColorMatrix type="matrix" values="0 0 0 0 0 0 0 0 0 0 0 0 0 0 0 0 0 0 0.25 0"/>
<feBlend mode="normal" in2="BackgroundImageFix" result="effect1_dropShadow"/>
<feBlend mode="normal" in="SourceGraphic" in2="effect1_dropShadow" result="shape"/>
</filter>
<filter id="filter3_d" x="298.643" y="939.247" width="39.0565" height="79.3649" filterUnits="userSpaceOnUse" color-interpolation-filters="sRGB">
<feFlood flood-opacity="0" result="BackgroundImageFix"/>
<feColorMatrix in="SourceAlpha" type="matrix" values="0 0 0 0 0 0 0 0 0 0 0 0 0 0 0 0 0 0 127 0"/>
<feOffset dy="4"/>
<feGaussianBlur stdDeviation="2"/>
<feColorMatrix type="matrix" values="0 0 0 0 0 0 0 0 0 0 0 0 0 0 0 0 0 0 0.25 0"/>
<feBlend mode="normal" in2="BackgroundImageFix" result="effect1_dropShadow"/>
<feBlend mode="normal" in="SourceGraphic" in2="effect1_dropShadow" result="shape"/>
</filter>
<filter id="filter4_d" x="654.984" y="960.65" width="23.6003" height="43.9619" filterUnits="userSpaceOnUse" color-interpolation-filters="sRGB">
<feFlood flood-opacity="0" result="BackgroundImageFix"/>
<feColorMatrix in="SourceAlpha" type="matrix" values="0 0 0 0 0 0 0 0 0 0 0 0 0 0 0 0 0 0 127 0"/>
<feOffset dy="4"/>
<feGaussianBlur stdDeviation="2"/>
<feColorMatrix type="matrix" values="0 0 0 0 0 0 0 0 0 0 0 0 0 0 0 0 0 0 0.25 0"/>
<feBlend mode="normal" in2="BackgroundImageFix" result="effect1_dropShadow"/>
<feBlend mode="normal" in="SourceGraphic" in2="effect1_dropShadow" result="shape"/>
</filter>
<filter id="filter5_d" x="730.028" y="960.531" width="45.0726" height="42.7544" filterUnits="userSpaceOnUse" color-interpolation-filters="sRGB">
<feFlood flood-opacity="0" result="BackgroundImageFix"/>
<feColorMatrix in="SourceAlpha" type="matrix" values="0 0 0 0 0 0 0 0 0 0 0 0 0 0 0 0 0 0 127 0"/>
<feOffset dy="4"/>
<feGaussianBlur stdDeviation="2"/>
<feColorMatrix type="matrix" values="0 0 0 0 0 0 0 0 0 0 0 0 0 0 0 0 0 0 0.25 0"/>
<feBlend mode="normal" in2="BackgroundImageFix" result="effect1_dropShadow"/>
<feBlend mode="normal" in="SourceGraphic" in2="effect1_dropShadow" result="shape"/>
</filter>
<filter id="filter6_d" x="667.47" y="963.884" width="22.1928" height="44.9724" filterUnits="userSpaceOnUse" color-interpolation-filters="sRGB">
<feFlood flood-opacity="0" result="BackgroundImageFix"/>
<feColorMatrix in="SourceAlpha" type="matrix" values="0 0 0 0 0 0 0 0 0 0 0 0 0 0 0 0 0 0 127 0"/>
<feOffset dy="4"/>
<feGaussianBlur stdDeviation="2"/>
<feColorMatrix type="matrix" values="0 0 0 0 0 0 0 0 0 0 0 0 0 0 0 0 0 0 0.25 0"/>
<feBlend mode="normal" in2="BackgroundImageFix" result="effect1_dropShadow"/>
<feBlend mode="normal" in="SourceGraphic" in2="effect1_dropShadow" result="shape"/>
</filter>
<filter id="filter7_d" x="361" y="939" width="100.03" height="80.3066" filterUnits="userSpaceOnUse" color-interpolation-filters="sRGB">
<feFlood flood-opacity="0" result="BackgroundImageFix"/>
<feColorMatrix in="SourceAlpha" type="matrix" values="0 0 0 0 0 0 0 0 0 0 0 0 0 0 0 0 0 0 127 0"/>
<feOffset dy="4"/>
<feGaussianBlur stdDeviation="2"/>
<feColorMatrix type="matrix" values="0 0 0 0 0 0 0 0 0 0 0 0 0 0 0 0 0 0 0.25 0"/>
<feBlend mode="normal" in2="BackgroundImageFix" result="effect1_dropShadow"/>
<feBlend mode="normal" in="SourceGraphic" in2="effect1_dropShadow" result="shape"/>
</filter>
<filter id="filter8_d" x="1265" y="864" width="155.006" height="158.547" filterUnits="userSpaceOnUse" color-interpolation-filters="sRGB">
<feFlood flood-opacity="0" result="BackgroundImageFix"/>
<feColorMatrix in="SourceAlpha" type="matrix" values="0 0 0 0 0 0 0 0 0 0 0 0 0 0 0 0 0 0 127 0"/>
<feOffset dy="4"/>
<feGaussianBlur stdDeviation="2"/>
<feColorMatrix type="matrix" values="0 0 0 0 0 0 0 0 0 0 0 0 0 0 0 0 0 0 0.25 0"/>
<feBlend mode="normal" in2="BackgroundImageFix" result="effect1_dropShadow"/>
<feBlend mode="normal" in="SourceGraphic" in2="effect1_dropShadow" result="shape"/>
</filter>
<filter id="filter9_d" x="142" y="81" width="1241.81" height="184.9" filterUnits="userSpaceOnUse" color-interpolation-filters="sRGB">
<feFlood flood-opacity="0" result="BackgroundImageFix"/>
<feColorMatrix in="SourceAlpha" type="matrix" values="0 0 0 0 0 0 0 0 0 0 0 0 0 0 0 0 0 0 127 0"/>
<feOffset dy="4"/>
<feGaussianBlur stdDeviation="2"/>
<feColorMatrix type="matrix" values="0 0 0 0 0 0 0 0 0 0 0 0 0 0 0 0 0 0 0.25 0"/>
<feBlend mode="normal" in2="BackgroundImageFix" result="effect1_dropShadow"/>
<feBlend mode="normal" in="SourceGraphic" in2="effect1_dropShadow" result="shape"/>
</filter>
<filter id="filter10_d" x="90.0001" y="171" width="1284" height="184.9" filterUnits="userSpaceOnUse" color-interpolation-filters="sRGB">
<feFlood flood-opacity="0" result="BackgroundImageFix"/>
<feColorMatrix in="SourceAlpha" type="matrix" values="0 0 0 0 0 0 0 0 0 0 0 0 0 0 0 0 0 0 127 0"/>
<feOffset dy="4"/>
<feGaussianBlur stdDeviation="2"/>
<feColorMatrix type="matrix" values="0 0 0 0 0 0 0 0 0 0 0 0 0 0 0 0 0 0 0.25 0"/>
<feBlend mode="normal" in2="BackgroundImageFix" result="effect1_dropShadow"/>
<feBlend mode="normal" in="SourceGraphic" in2="effect1_dropShadow" result="shape"/>
</filter>
<clipPath id="clip0">
<rect width="1440" height="1024" fill="white"/>
</clipPath>
</defs>
</svg>
