<svg viewBox="0 0 381 493" fill="none" xmlns="http://www.w3.org/2000/svg">
<path d="M179.79 86.0613C179.79 86.0613 209.889 78.9929 226.444 91.9516C242.998 104.91 205.374 134.362 205.374 134.362L179.79 86.0613Z" fill="#2F2E41"/>
<path d="M211.67 471.254L197.53 470.298L194.421 414.258L215.289 415.669L211.67 471.254Z" fill="#FFB8B8"/>
<path d="M187.231 451.304L173.937 456.306L148.681 406.425L168.303 399.043L187.231 451.304Z" fill="#FFB8B8"/>
<path d="M304.453 482.531C293.542 465.178 285.501 446.115 280.652 426.106C279.305 420.535 278.21 414.91 277.368 409.231C277.319 408.938 277.16 408.675 276.925 408.499C276.69 408.323 276.397 408.246 276.108 408.286C275.819 408.325 275.556 408.478 275.375 408.711C275.194 408.944 275.109 409.24 275.137 409.536C278.218 430.211 284.613 450.229 294.065 468.791C296.708 473.971 299.579 479.022 302.679 483.942C303.46 485.183 305.229 483.765 304.453 482.531V482.531Z" fill="#56614D"/>
<path d="M148.664 255.093C149.267 253.474 149.515 251.74 149.389 250.013C149.263 248.286 148.767 246.608 147.936 245.097C147.105 243.586 145.959 242.28 144.579 241.269C143.199 240.258 141.619 239.569 139.949 239.248L133.866 197.609L117.881 212.21L126.108 249.513C125.766 252.408 126.477 255.33 128.107 257.726C129.738 260.122 132.174 261.825 134.954 262.513C137.734 263.201 140.666 262.826 143.193 261.458C145.719 260.09 147.666 257.826 148.664 255.093V255.093Z" fill="#FFB8B8"/>
<path d="M187.115 465.819H214.446V483.357H169.907C169.907 481.054 170.352 478.773 171.217 476.646C172.082 474.518 173.349 472.585 174.947 470.956C176.545 469.328 178.442 468.036 180.53 467.154C182.618 466.273 184.855 465.819 187.115 465.819V465.819Z" fill="#2F2E41"/>
<path d="M163.04 456.007L188.68 446.361L194.639 462.814L152.855 478.532C152.072 476.372 151.715 474.075 151.803 471.774C151.892 469.473 152.424 467.211 153.37 465.12C154.315 463.028 155.656 461.147 157.315 459.583C158.974 458.019 160.92 456.804 163.04 456.007V456.007Z" fill="#2F2E41"/>
<path d="M148.574 236.014C148.574 236.014 134.253 243.872 138.66 275.306L143.066 394.308L167.41 448.557L188.34 442.944L175.012 398.799L192.637 321.335L194.949 462.029L214.778 465.397L243.31 231.523L206.958 214.683L148.574 236.014Z" fill="#191A1B"/>
<path d="M199.762 79.7062C215.442 79.7062 228.154 66.7519 228.154 50.7719C228.154 34.7919 215.442 21.8375 199.762 21.8375C184.082 21.8375 171.371 34.7919 171.371 50.7719C171.371 66.7519 184.082 79.7062 199.762 79.7062Z" fill="#FFB8B8"/>
<path d="M149.639 239.474C147.715 239.597 145.786 239.369 143.941 238.801L143.537 238.624L143.597 238.178C143.674 237.608 151.238 180.927 146.931 168.856C143.23 158.485 135.621 123.47 133.378 112.985C133.117 111.789 133.242 110.538 133.736 109.421C134.231 108.304 135.066 107.379 136.118 106.786L177.2 83.321C178.888 82.352 180.878 82.0867 182.754 82.5805C184.63 83.0743 186.245 84.289 187.261 85.9699L197.703 103.159L214.003 86.548C215.251 85.2729 216.9 84.4877 218.66 84.3306C220.42 84.1735 222.179 84.6546 223.625 85.6892L257.986 110.202C259.471 111.251 260.561 112.784 261.076 114.549C261.591 116.314 261.5 118.205 260.819 119.91C254.262 136.431 239.489 180.372 243.887 231.472L243.958 232.302L243.167 232.093C242.87 232.015 213.21 224.38 182.883 233.212C165.238 238.35 155.116 239.474 149.639 239.474Z" fill="#56614D"/>
<path d="M137.535 107.435C136.324 107.259 135.091 107.538 134.067 108.221C133.043 108.904 132.299 109.943 131.972 111.145L113.325 179.77L117.731 221.308L138.661 217.94L136.458 188.751L151.88 151.704L141.7 111.24C141.452 110.257 140.925 109.371 140.184 108.694C139.442 108.017 138.521 107.579 137.535 107.435V107.435Z" fill="#535C4B"/>
<path d="M221.714 10.1549C219.821 6.88 217.076 4.202 213.784 2.41663C210.491 0.631247 206.778 -0.192031 203.056 0.0377121C199.161 0.535407 195.361 1.61946 191.78 3.25448L173.22 10.6329C168.417 12.5421 163.157 14.8808 161.073 19.6861C159.139 24.146 160.582 29.2967 162.043 33.94L168.987 56.0117C169.756 51.0163 171.076 46.1253 172.922 41.4317C174.939 36.8169 178.129 32.5617 182.54 30.2557C187.361 27.7353 193.043 27.7874 198.455 28.0529C206.12 28.4288 214.454 29.4227 219.9 34.9324C222.791 38.0614 224.75 41.9625 225.552 46.182C226.34 50.379 226.737 54.6427 226.737 58.9159C229.88 53.4096 232.528 47.6248 234.647 41.6321C236.391 37.1698 237.385 32.4401 237.587 27.6414C237.769 22.8017 236.193 18.0635 233.161 14.3338C230.026 10.7624 224.917 8.83419 220.423 10.2481" fill="#2F2E41"/>
<path d="M237.504 271.586C236.901 269.967 236.654 268.233 236.78 266.506C236.906 264.778 237.401 263.1 238.232 261.59C239.063 260.079 240.209 258.772 241.589 257.762C242.969 256.751 244.55 256.062 246.22 255.741L252.303 214.102L268.287 228.703L260.06 266.006C260.403 268.901 259.692 271.823 258.061 274.219C256.431 276.615 253.995 278.318 251.214 279.006C248.434 279.694 245.503 279.319 242.976 277.951C240.449 276.583 238.502 274.319 237.504 271.586H237.504Z" fill="#FFB8B8"/>
<path d="M257.252 110.288C258.92 110.571 260.443 111.428 261.568 112.714C262.694 114.001 263.353 115.642 263.437 117.363L269.749 246.007H246.616L238.905 177.525L248.718 116.518C248.876 115.537 249.222 114.598 249.736 113.754C250.251 112.91 250.924 112.177 251.717 111.598C252.509 111.02 253.406 110.606 254.356 110.381C255.306 110.156 256.29 110.125 257.252 110.288V110.288Z" fill="#535C4B"/>
<path d="M305.044 483.308C307.926 451.673 315.886 420.736 328.607 391.731C332.153 383.659 336.055 375.765 340.314 368.049C341.408 366.064 338.414 364.28 337.32 366.265C321.831 394.37 310.98 424.878 305.201 456.57C303.593 465.42 302.385 474.332 301.576 483.308C301.37 485.571 304.839 485.557 305.044 483.308H305.044Z" fill="#535C4B"/>
<path d="M348.716 373.717C360.845 373.717 370.678 363.696 370.678 351.334C370.678 338.972 360.845 328.951 348.716 328.951C336.586 328.951 326.753 338.972 326.753 351.334C326.753 363.696 336.586 373.717 348.716 373.717Z" fill="#E6E6E6"/>
<path d="M307.29 483.902C309.16 463.379 314.324 443.309 322.577 424.492C324.877 419.256 327.408 414.134 330.171 409.128C330.31 408.867 330.343 408.56 330.264 408.274C330.186 407.987 330.001 407.743 329.749 407.593C329.497 407.443 329.197 407.399 328.914 407.469C328.63 407.54 328.385 407.72 328.229 407.971C318.181 426.204 311.141 445.996 307.392 466.556C306.349 472.297 305.565 478.079 305.04 483.902C304.907 485.371 307.157 485.361 307.29 483.902V483.902Z" fill="#535C4B"/>
<path d="M335.614 412.806C343.483 412.806 349.862 406.304 349.862 398.285C349.862 390.265 343.483 383.764 335.614 383.764C327.746 383.764 321.367 390.265 321.367 398.285C321.367 406.304 327.746 412.806 335.614 412.806Z" fill="#E6E6E6"/>
<path d="M275.115 411.786C282.985 411.786 289.364 405.285 289.364 397.265C289.364 389.246 282.985 382.744 275.115 382.744C267.246 382.744 260.867 389.246 260.867 397.265C260.867 405.285 267.246 411.786 275.115 411.786Z" fill="#E6E6E6"/>
<g filter="url(#filter0_d)">
<path d="M375.62 484.746H5.37636C5.01132 484.746 4.66126 484.598 4.40314 484.335C4.14502 484.072 4 483.716 4 483.343C4 482.971 4.14502 482.615 4.40314 482.352C4.66126 482.089 5.01132 481.941 5.37636 481.941H375.62C375.801 481.94 375.98 481.976 376.148 482.046C376.315 482.117 376.467 482.22 376.595 482.35C376.724 482.481 376.825 482.635 376.895 482.806C376.964 482.976 377 483.159 377 483.343C377 483.528 376.964 483.711 376.895 483.881C376.825 484.052 376.724 484.207 376.595 484.337C376.467 484.467 376.315 484.57 376.148 484.641C375.98 484.711 375.801 484.747 375.62 484.746V484.746Z" fill="#3F3D56"/>
</g>
<defs>
<filter id="filter0_d" x="0" y="481.941" width="381" height="10.8055" filterUnits="userSpaceOnUse" color-interpolation-filters="sRGB">
<feFlood flood-opacity="0" result="BackgroundImageFix"/>
<feColorMatrix in="SourceAlpha" type="matrix" values="0 0 0 0 0 0 0 0 0 0 0 0 0 0 0 0 0 0 127 0"/>
<feOffset dy="4"/>
<feGaussianBlur stdDeviation="2"/>
<feColorMatrix type="matrix" values="0 0 0 0 0 0 0 0 0 0 0 0 0 0 0 0 0 0 0.25 0"/>
<feBlend mode="normal" in2="BackgroundImageFix" result="effect1_dropShadow"/>
<feBlend mode="normal" in="SourceGraphic" in2="effect1_dropShadow" result="shape"/>
</filter>
</defs>
</svg>
