<svg width="208" height="208" viewBox="0 0 208 208" fill="none" xmlns="http://www.w3.org/2000/svg">
<g filter="url(#filter0_d)">
<path d="M98.0517 198.207C53.98 193.37 1.42236 144.124 4.09815 93.4169C6.77393 42.7097 57.6765 -4.49451 101.748 0.342179C145.82 5.17887 171.189 99.9421 168.513 150.649C165.838 201.357 142.123 203.044 98.0517 198.207Z" fill="#5D645C"/>
<g filter="url(#filter1_d)">
<path d="M171.421 42.4778H34.7692V196.46H171.421V42.4778Z" fill="#939D90"/>
</g>
<path d="M101.331 63.7167H67.7567C67.7032 63.7169 67.6501 63.7055 67.6005 63.6833C67.551 63.6611 67.506 63.6286 67.4681 63.5875C67.4301 63.5464 67.4 63.4976 67.3795 63.4438C67.359 63.3901 67.3484 63.3325 67.3484 63.2743C67.3484 63.2161 67.359 63.1585 67.3795 63.1047C67.4 63.051 67.4301 63.0022 67.4681 62.9611C67.506 62.92 67.551 62.8874 67.6005 62.8652C67.6501 62.843 67.7032 62.8317 67.7567 62.8318H101.331C101.439 62.832 101.542 62.8788 101.619 62.9617C101.695 63.0447 101.738 63.1571 101.738 63.2743C101.738 63.3915 101.695 63.5039 101.619 63.5868C101.542 63.6698 101.439 63.7165 101.331 63.7167V63.7167Z" fill="#F2F2F2"/>
<path d="M138.429 69.9116H84.9556C84.8462 69.9116 84.7412 69.865 84.6638 69.782C84.5865 69.699 84.543 69.5864 84.543 69.4691C84.543 69.3517 84.5865 69.2392 84.6638 69.1562C84.7412 69.0732 84.8462 69.0266 84.9556 69.0266H138.429C138.483 69.0266 138.537 69.0381 138.587 69.0603C138.637 69.0825 138.682 69.1151 138.721 69.1562C138.759 69.1973 138.789 69.2461 138.81 69.2998C138.831 69.3534 138.842 69.411 138.842 69.4691C138.842 69.5272 138.831 69.5847 138.81 69.6384C138.789 69.6921 138.759 69.7409 138.721 69.782C138.682 69.8231 138.637 69.8556 138.587 69.8779C138.537 69.9001 138.483 69.9116 138.429 69.9116V69.9116Z" fill="#F2F2F2"/>
<path d="M102.224 76.9911H67.7666C67.6557 76.9911 67.5493 76.8979 67.4709 76.7319C67.3925 76.5659 67.3484 76.3409 67.3484 76.1061C67.3484 75.8714 67.3925 75.6463 67.4709 75.4804C67.5493 75.3144 67.6557 75.2212 67.7666 75.2212H102.224C102.335 75.2212 102.442 75.3144 102.52 75.4804C102.598 75.6463 102.643 75.8714 102.643 76.1061C102.643 76.3409 102.598 76.5659 102.52 76.7319C102.442 76.8979 102.335 76.9911 102.224 76.9911V76.9911Z" fill="#F2F2F2"/>
<path d="M138.434 76.9911H104.86C104.752 76.9911 104.648 76.8979 104.572 76.7319C104.495 76.5659 104.452 76.3409 104.452 76.1061C104.452 75.8714 104.495 75.6463 104.572 75.4804C104.648 75.3144 104.752 75.2212 104.86 75.2212H138.434C138.542 75.2212 138.646 75.3144 138.722 75.4804C138.799 75.6463 138.842 75.8714 138.842 76.1061C138.842 76.3409 138.799 76.5659 138.722 76.7319C138.646 76.8979 138.542 76.9911 138.434 76.9911V76.9911Z" fill="#F2F2F2"/>
<path d="M102.224 83.1857H67.7666C67.6557 83.1857 67.5493 83.1391 67.4709 83.0561C67.3925 82.9732 67.3484 82.8606 67.3484 82.7433C67.3484 82.6259 67.3925 82.5134 67.4709 82.4304C67.5493 82.3474 67.6557 82.3008 67.7666 82.3008H102.224C102.335 82.3008 102.442 82.3474 102.52 82.4304C102.598 82.5134 102.643 82.6259 102.643 82.7433C102.643 82.8606 102.598 82.9732 102.52 83.0561C102.442 83.1391 102.335 83.1857 102.224 83.1857V83.1857Z" fill="#F2F2F2"/>
<path d="M102.224 89.3806H67.7666C67.6557 89.3806 67.5493 89.3339 67.4709 89.251C67.3925 89.168 67.3484 89.0554 67.3484 88.9381C67.3484 88.8207 67.3925 88.7082 67.4709 88.6252C67.5493 88.5422 67.6557 88.4956 67.7666 88.4956H102.224C102.335 88.4956 102.442 88.5422 102.52 88.6252C102.598 88.7082 102.643 88.8207 102.643 88.9381C102.643 89.0554 102.598 89.168 102.52 89.251C102.442 89.3339 102.335 89.3806 102.224 89.3806V89.3806Z" fill="#F2F2F2"/>
<path d="M116.733 63.7167H107.556C107.453 63.7167 107.354 63.6701 107.281 63.5871C107.208 63.5042 107.167 63.3916 107.167 63.2743C107.167 63.1569 107.208 63.0444 107.281 62.9614C107.354 62.8784 107.453 62.8318 107.556 62.8318H116.733C116.836 62.8318 116.935 62.8784 117.008 62.9614C117.081 63.0444 117.122 63.1569 117.122 63.2743C117.122 63.3916 117.081 63.5042 117.008 63.5871C116.935 63.6701 116.836 63.7167 116.733 63.7167V63.7167Z" fill="#F2F2F2"/>
<path d="M116.733 83.1857H107.556C107.453 83.1857 107.354 83.1391 107.281 83.0561C107.208 82.9732 107.167 82.8606 107.167 82.7433C107.167 82.6259 107.208 82.5134 107.281 82.4304C107.354 82.3474 107.453 82.3008 107.556 82.3008H116.733C116.836 82.3008 116.935 82.3474 117.008 82.4304C117.081 82.5134 117.122 82.6259 117.122 82.7433C117.122 82.8606 117.081 82.9732 117.008 83.0561C116.935 83.1391 116.836 83.1857 116.733 83.1857V83.1857Z" fill="#F2F2F2"/>
<path d="M116.733 89.3806H107.557C107.506 89.3807 107.455 89.3693 107.408 89.3471C107.361 89.325 107.318 89.2924 107.282 89.2513C107.245 89.2102 107.217 89.1614 107.197 89.1076C107.178 89.0539 107.167 88.9963 107.167 88.9381C107.167 88.8799 107.178 88.8223 107.197 88.7685C107.217 88.7148 107.245 88.666 107.282 88.6249C107.318 88.5838 107.361 88.5512 107.408 88.529C107.455 88.5068 107.506 88.4955 107.557 88.4956H116.733C116.784 88.4955 116.834 88.5068 116.882 88.529C116.929 88.5512 116.972 88.5838 117.008 88.6249C117.044 88.666 117.073 88.7148 117.092 88.7685C117.112 88.8223 117.122 88.8799 117.122 88.9381C117.122 88.9963 117.112 89.0539 117.092 89.1076C117.073 89.1614 117.044 89.2102 117.008 89.2513C116.972 89.2924 116.929 89.325 116.882 89.3471C116.834 89.3693 116.784 89.3807 116.733 89.3806V89.3806Z" fill="#F2F2F2"/>
<path d="M133.022 89.3806H123.845C123.742 89.3803 123.643 89.3336 123.571 89.2506C123.498 89.1677 123.457 89.0553 123.457 88.9381C123.457 88.8209 123.498 88.7085 123.571 88.6255C123.643 88.5426 123.742 88.4959 123.845 88.4956H133.022C133.073 88.4955 133.124 88.5068 133.171 88.529C133.218 88.5512 133.261 88.5838 133.298 88.6249C133.334 88.666 133.362 88.7148 133.382 88.7685C133.402 88.8223 133.412 88.8799 133.412 88.9381C133.412 88.9963 133.402 89.0539 133.382 89.1076C133.362 89.1614 133.334 89.2102 133.298 89.2513C133.261 89.2924 133.218 89.325 133.171 89.3471C133.124 89.3693 133.073 89.3807 133.022 89.3806V89.3806Z" fill="#F2F2F2"/>
<path d="M77.7839 69.9116H67.7726C67.6601 69.9116 67.5522 69.865 67.4727 69.782C67.3931 69.699 67.3484 69.5864 67.3484 69.4691C67.3484 69.3517 67.3931 69.2392 67.4727 69.1562C67.5522 69.0732 67.6601 69.0266 67.7726 69.0266H77.7839C77.8964 69.0266 78.0043 69.0732 78.0839 69.1562C78.1635 69.2392 78.2081 69.3517 78.2081 69.4691C78.2081 69.5864 78.1635 69.699 78.0839 69.782C78.0043 69.865 77.8964 69.9116 77.7839 69.9116V69.9116Z" fill="#F2F2F2"/>
<path d="M101.33 159.292H67.7559C67.6478 159.292 67.5442 159.245 67.4678 159.162C67.3913 159.079 67.3484 158.967 67.3484 158.849C67.3484 158.732 67.3913 158.62 67.4678 158.537C67.5442 158.454 67.6478 158.407 67.7559 158.407H101.33C101.438 158.407 101.542 158.454 101.618 158.537C101.695 158.62 101.738 158.732 101.738 158.849C101.738 158.967 101.695 159.079 101.618 159.162C101.542 159.245 101.438 159.292 101.33 159.292Z" fill="#F2F2F2"/>
<path d="M101.33 172.566H67.7559C67.6478 172.566 67.5442 172.473 67.4678 172.307C67.3913 172.141 67.3484 171.916 67.3484 171.681C67.3484 171.447 67.3913 171.222 67.4678 171.056C67.5442 170.89 67.6478 170.796 67.7559 170.796H101.33C101.438 170.796 101.542 170.89 101.618 171.056C101.695 171.222 101.738 171.447 101.738 171.681C101.738 171.916 101.695 172.141 101.618 172.307C101.542 172.473 101.438 172.566 101.33 172.566Z" fill="#F2F2F2"/>
<path d="M101.329 178.761H67.7567C67.7031 178.761 67.6501 178.739 67.6005 178.694C67.551 178.65 67.506 178.585 67.4681 178.503C67.4301 178.42 67.4 178.323 67.3795 178.215C67.359 178.108 67.3484 177.993 67.3484 177.876C67.3484 177.76 67.359 177.645 67.3795 177.537C67.4 177.43 67.4301 177.332 67.4681 177.25C67.506 177.168 67.551 177.102 67.6005 177.058C67.6501 177.014 67.7031 176.991 67.7567 176.991H101.329C101.383 176.991 101.436 177.014 101.485 177.058C101.535 177.102 101.58 177.168 101.618 177.25C101.656 177.332 101.686 177.43 101.706 177.537C101.727 177.645 101.738 177.76 101.738 177.876C101.738 177.993 101.727 178.108 101.706 178.215C101.686 178.323 101.656 178.42 101.618 178.503C101.58 178.585 101.535 178.65 101.485 178.694C101.436 178.739 101.383 178.761 101.329 178.761V178.761Z" fill="#F2F2F2"/>
<path d="M116.663 172.566H105.817C105.695 172.566 105.578 172.473 105.492 172.307C105.406 172.141 105.357 171.916 105.357 171.681C105.357 171.447 105.406 171.222 105.492 171.056C105.578 170.89 105.695 170.796 105.817 170.796H116.663C116.784 170.796 116.901 170.89 116.988 171.056C117.074 171.222 117.122 171.447 117.122 171.681C117.122 171.916 117.074 172.141 116.988 172.307C116.901 172.473 116.784 172.566 116.663 172.566Z" fill="#F2F2F2"/>
<path d="M116.663 178.761H105.817C105.695 178.761 105.578 178.668 105.492 178.502C105.406 178.336 105.357 178.111 105.357 177.876C105.357 177.641 105.406 177.416 105.492 177.25C105.578 177.084 105.695 176.991 105.817 176.991H116.663C116.784 176.991 116.901 177.084 116.988 177.25C117.074 177.416 117.122 177.641 117.122 177.876C117.122 178.111 117.074 178.336 116.988 178.502C116.901 178.668 116.784 178.761 116.663 178.761V178.761Z" fill="#F2F2F2"/>
<path d="M132.118 172.566H122.941C122.838 172.566 122.739 172.473 122.666 172.307C122.593 172.141 122.552 171.916 122.552 171.681C122.552 171.447 122.593 171.222 122.666 171.056C122.739 170.89 122.838 170.796 122.941 170.796H132.118C132.221 170.796 132.32 170.89 132.393 171.056C132.466 171.222 132.507 171.447 132.507 171.681C132.507 171.916 132.466 172.141 132.393 172.307C132.32 172.473 132.221 172.566 132.118 172.566V172.566Z" fill="#F2F2F2"/>
<path d="M138.429 165.487H84.9556C84.8462 165.487 84.7412 165.44 84.6638 165.357C84.5865 165.274 84.543 165.162 84.543 165.044C84.543 164.927 84.5865 164.814 84.6638 164.731C84.7412 164.648 84.8462 164.602 84.9556 164.602H138.429C138.538 164.602 138.643 164.648 138.721 164.731C138.798 164.814 138.842 164.927 138.842 165.044C138.842 165.162 138.798 165.274 138.721 165.357C138.643 165.44 138.538 165.487 138.429 165.487V165.487Z" fill="#F2F2F2"/>
<path d="M77.7839 165.487H67.7726C67.6601 165.487 67.5522 165.44 67.4727 165.357C67.3931 165.274 67.3484 165.162 67.3484 165.044C67.3484 164.927 67.3931 164.814 67.4727 164.731C67.5522 164.648 67.6601 164.602 67.7726 164.602H77.7839C77.8964 164.602 78.0043 164.648 78.0839 164.731C78.1635 164.814 78.2081 164.927 78.2081 165.044C78.2081 165.162 78.1635 165.274 78.0839 165.357C78.0043 165.44 77.8964 165.487 77.7839 165.487V165.487Z" fill="#F2F2F2"/>
<path d="M138.429 184.956H84.9564C84.9022 184.956 84.8485 184.945 84.7983 184.922C84.7481 184.9 84.7025 184.868 84.6641 184.826C84.6257 184.785 84.5953 184.737 84.5745 184.683C84.5537 184.629 84.543 184.571 84.543 184.513C84.543 184.455 84.5537 184.397 84.5745 184.344C84.5953 184.29 84.6257 184.241 84.6641 184.2C84.7025 184.159 84.7481 184.126 84.7983 184.104C84.8485 184.082 84.9022 184.071 84.9564 184.071H138.429C138.538 184.071 138.643 184.117 138.721 184.2C138.798 184.283 138.842 184.396 138.842 184.513C138.842 184.631 138.798 184.743 138.721 184.826C138.643 184.909 138.538 184.956 138.429 184.956V184.956Z" fill="#F2F2F2"/>
<path d="M77.7831 184.956H67.7734C67.7177 184.956 67.6624 184.945 67.6109 184.922C67.5593 184.9 67.5124 184.868 67.473 184.826C67.4335 184.785 67.4022 184.737 67.3808 184.683C67.3594 184.629 67.3484 184.571 67.3484 184.513C67.3484 184.455 67.3594 184.397 67.3808 184.344C67.4022 184.29 67.4335 184.241 67.473 184.2C67.5124 184.159 67.5593 184.126 67.6109 184.104C67.6624 184.082 67.7177 184.071 67.7734 184.071H77.7831C77.8389 184.071 77.8941 184.082 77.9457 184.104C77.9973 184.126 78.0441 184.159 78.0836 184.2C78.1231 184.241 78.1544 184.29 78.1758 184.344C78.1971 184.397 78.2081 184.455 78.2081 184.513C78.2081 184.571 78.1971 184.629 78.1758 184.683C78.1544 184.737 78.1231 184.785 78.0836 184.826C78.0441 184.868 77.9973 184.9 77.9457 184.922C77.8941 184.945 77.8389 184.956 77.7831 184.956Z" fill="#F2F2F2"/>
<g filter="url(#filter2_d)">
<path d="M93.2483 105.31L80.0181 123.894L93.2483 142.478L96.2251 138.244L86.2198 124.011L96.3077 109.662L93.2483 105.31Z" fill="#56614D"/>
</g>
<g filter="url(#filter3_d)">
<path d="M113.677 105.31L126.172 123.894L113.677 142.478L110.865 138.244L120.315 124.011L110.787 109.662L113.677 105.31Z" fill="#56614D"/>
</g>
<g filter="url(#filter4_d)">
<path d="M51.5 49C52.8807 49 54 47.8807 54 46.5C54 45.1193 52.8807 44 51.5 44C50.1193 44 49 45.1193 49 46.5C49 47.8807 50.1193 49 51.5 49Z" fill="#56614D"/>
</g>
<g filter="url(#filter5_d)">
<path d="M45.5 49C46.8807 49 48 47.8807 48 46.5C48 45.1193 46.8807 44 45.5 44C44.1193 44 43 45.1193 43 46.5C43 47.8807 44.1193 49 45.5 49Z" fill="#56614D"/>
</g>
<g filter="url(#filter6_d)">
<path d="M39.5 49C40.8807 49 42 47.8807 42 46.5C42 45.1193 40.8807 44 39.5 44C38.1193 44 37 45.1193 37 46.5C37 47.8807 38.1193 49 39.5 49Z" fill="#56614D"/>
</g>
<path opacity="0.1" d="M171.421 50.4424H34.7692V51.3273H171.421V50.4424Z" fill="black"/>
<g filter="url(#filter7_d)">
<path d="M204 159.552C204 176.413 197.112 182.301 188.615 182.301C180.119 182.301 173.231 176.413 173.231 159.552C173.231 142.69 188.615 121.239 188.615 121.239C188.615 121.239 204 142.69 204 159.552Z" fill="#CCD0CA"/>
</g>
<path d="M187.449 178.789L187.604 164.902L194.045 147.722L187.628 162.724L187.698 156.479L192.137 144.05L187.716 154.827L187.841 143.597L192.595 133.702L187.861 141.831L187.939 121.239L187.448 148.499L187.488 147.375L182.655 136.589L187.411 149.534L186.961 162.076L186.947 161.743L181.376 150.393L186.93 162.919L186.874 164.487L186.864 164.511L186.868 164.64L185.726 196.46H187.252L187.435 180.024L192.977 167.529L187.449 178.789Z" fill="#3F3D56"/>
</g>
<defs>
<filter id="filter0_d" x="0" y="0" width="208" height="208" filterUnits="userSpaceOnUse" color-interpolation-filters="sRGB">
<feFlood flood-opacity="0" result="BackgroundImageFix"/>
<feColorMatrix in="SourceAlpha" type="matrix" values="0 0 0 0 0 0 0 0 0 0 0 0 0 0 0 0 0 0 127 0"/>
<feOffset dy="4"/>
<feGaussianBlur stdDeviation="2"/>
<feColorMatrix type="matrix" values="0 0 0 0 0 0 0 0 0 0 0 0 0 0 0 0 0 0 0.25 0"/>
<feBlend mode="normal" in2="BackgroundImageFix" result="effect1_dropShadow"/>
<feBlend mode="normal" in="SourceGraphic" in2="effect1_dropShadow" result="shape"/>
</filter>
<filter id="filter1_d" x="30.7692" y="42.4778" width="144.652" height="161.982" filterUnits="userSpaceOnUse" color-interpolation-filters="sRGB">
<feFlood flood-opacity="0" result="BackgroundImageFix"/>
<feColorMatrix in="SourceAlpha" type="matrix" values="0 0 0 0 0 0 0 0 0 0 0 0 0 0 0 0 0 0 127 0"/>
<feOffset dy="4"/>
<feGaussianBlur stdDeviation="2"/>
<feColorMatrix type="matrix" values="0 0 0 0 0 0 0 0 0 0 0 0 0 0 0 0 0 0 0.25 0"/>
<feBlend mode="normal" in2="BackgroundImageFix" result="effect1_dropShadow"/>
<feBlend mode="normal" in="SourceGraphic" in2="effect1_dropShadow" result="shape"/>
</filter>
<filter id="filter2_d" x="76.0181" y="105.31" width="24.2896" height="45.1681" filterUnits="userSpaceOnUse" color-interpolation-filters="sRGB">
<feFlood flood-opacity="0" result="BackgroundImageFix"/>
<feColorMatrix in="SourceAlpha" type="matrix" values="0 0 0 0 0 0 0 0 0 0 0 0 0 0 0 0 0 0 127 0"/>
<feOffset dy="4"/>
<feGaussianBlur stdDeviation="2"/>
<feColorMatrix type="matrix" values="0 0 0 0 0 0 0 0 0 0 0 0 0 0 0 0 0 0 0.25 0"/>
<feBlend mode="normal" in2="BackgroundImageFix" result="effect1_dropShadow"/>
<feBlend mode="normal" in="SourceGraphic" in2="effect1_dropShadow" result="shape"/>
</filter>
<filter id="filter3_d" x="106.787" y="105.31" width="23.3846" height="45.1681" filterUnits="userSpaceOnUse" color-interpolation-filters="sRGB">
<feFlood flood-opacity="0" result="BackgroundImageFix"/>
<feColorMatrix in="SourceAlpha" type="matrix" values="0 0 0 0 0 0 0 0 0 0 0 0 0 0 0 0 0 0 127 0"/>
<feOffset dy="4"/>
<feGaussianBlur stdDeviation="2"/>
<feColorMatrix type="matrix" values="0 0 0 0 0 0 0 0 0 0 0 0 0 0 0 0 0 0 0.25 0"/>
<feBlend mode="normal" in2="BackgroundImageFix" result="effect1_dropShadow"/>
<feBlend mode="normal" in="SourceGraphic" in2="effect1_dropShadow" result="shape"/>
</filter>
<filter id="filter4_d" x="45" y="44" width="13" height="13" filterUnits="userSpaceOnUse" color-interpolation-filters="sRGB">
<feFlood flood-opacity="0" result="BackgroundImageFix"/>
<feColorMatrix in="SourceAlpha" type="matrix" values="0 0 0 0 0 0 0 0 0 0 0 0 0 0 0 0 0 0 127 0"/>
<feOffset dy="4"/>
<feGaussianBlur stdDeviation="2"/>
<feColorMatrix type="matrix" values="0 0 0 0 0 0 0 0 0 0 0 0 0 0 0 0 0 0 0.25 0"/>
<feBlend mode="normal" in2="BackgroundImageFix" result="effect1_dropShadow"/>
<feBlend mode="normal" in="SourceGraphic" in2="effect1_dropShadow" result="shape"/>
</filter>
<filter id="filter5_d" x="39" y="44" width="13" height="13" filterUnits="userSpaceOnUse" color-interpolation-filters="sRGB">
<feFlood flood-opacity="0" result="BackgroundImageFix"/>
<feColorMatrix in="SourceAlpha" type="matrix" values="0 0 0 0 0 0 0 0 0 0 0 0 0 0 0 0 0 0 127 0"/>
<feOffset dy="4"/>
<feGaussianBlur stdDeviation="2"/>
<feColorMatrix type="matrix" values="0 0 0 0 0 0 0 0 0 0 0 0 0 0 0 0 0 0 0.25 0"/>
<feBlend mode="normal" in2="BackgroundImageFix" result="effect1_dropShadow"/>
<feBlend mode="normal" in="SourceGraphic" in2="effect1_dropShadow" result="shape"/>
</filter>
<filter id="filter6_d" x="33" y="44" width="13" height="13" filterUnits="userSpaceOnUse" color-interpolation-filters="sRGB">
<feFlood flood-opacity="0" result="BackgroundImageFix"/>
<feColorMatrix in="SourceAlpha" type="matrix" values="0 0 0 0 0 0 0 0 0 0 0 0 0 0 0 0 0 0 127 0"/>
<feOffset dy="4"/>
<feGaussianBlur stdDeviation="2"/>
<feColorMatrix type="matrix" values="0 0 0 0 0 0 0 0 0 0 0 0 0 0 0 0 0 0 0.25 0"/>
<feBlend mode="normal" in2="BackgroundImageFix" result="effect1_dropShadow"/>
<feBlend mode="normal" in="SourceGraphic" in2="effect1_dropShadow" result="shape"/>
</filter>
<filter id="filter7_d" x="169.231" y="121.239" width="38.7692" height="69.062" filterUnits="userSpaceOnUse" color-interpolation-filters="sRGB">
<feFlood flood-opacity="0" result="BackgroundImageFix"/>
<feColorMatrix in="SourceAlpha" type="matrix" values="0 0 0 0 0 0 0 0 0 0 0 0 0 0 0 0 0 0 127 0"/>
<feOffset dy="4"/>
<feGaussianBlur stdDeviation="2"/>
<feColorMatrix type="matrix" values="0 0 0 0 0 0 0 0 0 0 0 0 0 0 0 0 0 0 0.25 0"/>
<feBlend mode="normal" in2="BackgroundImageFix" result="effect1_dropShadow"/>
<feBlend mode="normal" in="SourceGraphic" in2="effect1_dropShadow" result="shape"/>
</filter>
</defs>
</svg>
