<svg width="815" height="892" viewBox="0 0 815 892" preserveAspectRatio="none" fill="none" xmlns="http://www.w3.org/2000/svg">
<g opacity="0.6">
<path opacity="0.6" d="M113.518 80.9238C111.745 82.7581 110.363 85.1205 109.495 87.7978C108.627 90.4751 108.301 93.383 108.546 96.2591C110.164 115.216 115.029 158.331 127.157 182.608C127.873 184.049 128.621 185.425 129.4 186.736H194.95C194.95 186.736 208.317 123.979 209.203 96.3187C209.306 93.1287 208.826 89.9515 207.803 87.0318C206.779 84.1122 205.238 81.528 203.299 79.4782C193.474 69.1801 170.412 46.6912 157.328 48.1815H157.068C157.068 48.1815 152.038 41.0727 113.518 80.9238Z" fill="#D6DBE6" fill-opacity="0.1"/>
<path opacity="0.05" d="M108.546 96.2587C110.163 115.216 115.028 158.33 127.156 182.608C129.766 184.098 132.434 185.424 135.08 186.736C151.612 194.888 167.234 199.702 164.707 186.736C164.131 184.173 163.281 181.721 162.18 179.448C147.148 146.438 154.103 74.4553 157.292 48.3003H157.032C157.032 48.3003 152.049 41.117 113.529 80.968C111.76 82.7965 110.378 85.1509 109.508 87.8198C108.639 90.4887 108.308 93.3885 108.546 96.2587V96.2587Z" fill="black" fill-opacity="0.31"/>
<path opacity="0.6" d="M128.999 184.516C128.999 188.152 131.455 191.505 135.6 194.218C138.437 195.994 141.429 197.345 144.515 198.242C150.321 199.949 156.267 200.785 162.228 200.73C169.394 200.844 176.533 199.588 183.401 197.005C186.207 195.945 188.873 194.368 191.313 192.325C193.911 190.015 195.399 187.362 195.399 184.531C195.399 180.402 192.246 176.647 187.062 173.785C186.227 173.318 185.338 172.881 184.393 172.474C177.235 169.59 169.753 168.191 162.24 168.331C151.707 168.331 142.331 170.73 136.261 174.471C135.24 175.093 134.257 175.811 133.321 176.617C130.546 178.942 128.999 181.639 128.999 184.516Z" fill="#D6DBE6" fill-opacity="0.1"/>
<path opacity="0.1" d="M128.302 184.516C128.302 188.152 130.758 191.505 134.903 194.218C137.74 195.994 140.733 197.345 143.819 198.242C149.625 199.949 155.57 200.785 161.532 200.73C168.698 200.844 175.836 199.588 182.705 197.005C185.51 195.945 188.176 194.368 190.616 192.325C193.214 190.015 194.702 187.362 194.702 184.531C194.702 180.402 191.549 176.647 186.365 173.785C185.531 173.318 184.641 172.881 183.697 172.474C176.538 169.59 169.057 168.191 161.544 168.331C151.01 168.331 141.634 170.73 135.565 174.471C134.544 175.093 133.561 175.811 132.624 176.617C129.837 178.942 128.302 181.639 128.302 184.516Z" fill="black" fill-opacity="0.31"/>
<path opacity="0.6" d="M168.511 188.927C169.5 186.663 169.814 184.026 169.396 181.494C168.978 178.963 167.855 176.704 166.232 175.127C166.232 175.127 163.964 171.684 165.358 168.555C165.358 168.555 153.773 178.212 159.678 189.315L168.511 188.927Z" fill="black" fill-opacity="0.2"/>
<path opacity="0.6" d="M165.688 189.255C166.134 188.235 166.275 187.047 166.086 185.907C165.898 184.767 165.392 183.75 164.661 183.04C164.392 182.632 164.213 182.141 164.145 181.617C164.076 181.093 164.12 180.555 164.271 180.06C164.271 180.06 159.052 184.411 161.721 189.404L165.688 189.255Z" fill="black" fill-opacity="0.2"/>
<path opacity="0.1" d="M165.688 189.255C166.134 188.235 166.275 187.047 166.086 185.907C165.898 184.767 165.392 183.75 164.661 183.04C164.392 182.632 164.213 182.141 164.145 181.617C164.076 181.093 164.12 180.555 164.271 180.06C164.271 180.06 159.052 184.411 161.721 189.404L165.688 189.255Z" fill="black" fill-opacity="0.31"/>
<path opacity="0.6" d="M135.6 194.217C138.437 195.994 141.429 197.344 144.515 198.241C153.962 195.469 181.122 186.557 187.026 173.785C186.192 173.318 185.302 172.881 184.358 172.474C180.532 178.062 165.169 197.422 135.6 194.217Z" fill="#565387" fill-opacity="0.31"/>
<path opacity="0.6" d="M133.238 176.587C136.781 184.65 169.845 193.636 183.342 196.99C186.148 195.93 188.814 194.353 191.254 192.31C172.026 191.994 153.139 185.861 136.178 174.426C135.157 175.053 134.174 175.776 133.238 176.587V176.587Z" fill="#565387" fill-opacity="0.31"/>
<path opacity="0.35" d="M175.324 80.2677C177.273 82.682 176.729 86.6761 176.505 90.1038C176.126 96.5164 177.425 102.909 180.201 108.301C181.925 111.624 184.299 115.022 183.874 118.956C183.448 122.891 180.201 125.529 178.477 129.001C176.753 132.474 176.611 137.123 177.119 141.311C177.627 145.499 178.654 149.582 178.914 153.8C179.029 154.765 178.944 155.751 178.666 156.661C178.244 157.547 177.686 158.317 177.025 158.927C175.932 160.16 175.018 161.622 174.32 163.249C173.977 164.245 173.515 165.17 172.951 165.991C172.466 166.538 171.906 166.968 171.297 167.258C166.869 169.612 161.768 169.195 157.198 167.347C152.683 165.271 148.379 162.53 144.374 159.18C143.238 158.426 142.221 157.416 141.374 156.199C140.417 154.387 139.915 152.252 139.934 150.074C139.745 145.41 140.441 140.715 140.004 136.065C139.568 131.415 137.855 126.736 136.804 122.056C134.809 113.131 135.099 103.638 137.631 94.9324C138.542 91.2783 140.254 88.0236 142.567 85.5435C147.716 80.5956 155.202 82.5628 161.166 79.4182C165.629 77.0337 171.238 75.1857 175.324 80.2677Z" fill="black" fill-opacity="0.2"/>
</g>
<g opacity="0.6">
<path opacity="0.6" d="M12.1878 304.858C11.1618 305.918 10.3612 307.283 9.85813 308.831C9.35509 310.38 9.16551 312.061 9.3065 313.725C10.2394 324.679 13.0498 349.612 20.0641 363.651C20.4814 364.485 20.9144 365.28 21.3631 366.035H59.257C59.257 366.035 66.9799 329.761 67.5231 313.77C67.5811 311.924 67.3013 310.085 66.7054 308.398C66.1094 306.71 65.2134 305.218 64.0868 304.038C58.4068 298.077 45.0748 285.111 37.5173 285.976H37.3638C37.3638 285.976 34.4589 281.818 12.1878 304.858Z" fill="#D6DBE6" fill-opacity="0.1"/>
<path opacity="0.05" d="M9.31792 313.726C10.2508 324.68 13.0613 349.613 20.0756 363.652C21.5871 364.472 23.1222 365.277 24.6573 366.037C34.1869 370.746 43.2441 373.488 41.7799 366.037C41.4461 364.553 40.9535 363.134 40.3156 361.819C31.6245 342.743 35.5921 301.133 37.4933 285.962H37.3398C37.3398 285.962 34.4585 281.804 12.1992 304.844C11.1715 305.905 10.3697 307.274 9.86662 308.824C9.3635 310.375 9.1749 312.06 9.31792 313.726V313.726Z" fill="black" fill-opacity="0.31"/>
<path opacity="0.6" d="M21.1384 364.74C21.1384 366.841 22.5555 368.779 24.9526 370.343C26.591 371.369 28.319 372.15 30.1012 372.668C33.4438 373.67 36.8684 374.17 40.3039 374.159C44.4387 374.204 48.5552 373.46 52.514 371.953C54.139 371.339 55.683 370.425 57.0958 369.241C57.7448 368.789 58.2982 368.147 58.7093 367.369C59.1204 366.591 59.377 365.699 59.4575 364.77C59.4575 362.385 57.6389 360.209 54.6395 358.555C54.1514 358.287 53.6358 358.033 53.0926 357.795C48.9529 356.125 44.6258 355.315 40.2803 355.396C34.1988 355.396 28.7668 356.782 25.2597 358.943C24.6693 359.301 24.1009 359.715 23.5592 360.18C22.8957 360.639 22.3295 361.294 21.9082 362.087C21.4869 362.881 21.2229 363.791 21.1384 364.74V364.74Z" fill="#D6DBE6" fill-opacity="0.1"/>
<path opacity="0.1" d="M20.7373 364.74C20.7373 366.841 22.1544 368.779 24.5515 370.344C26.1899 371.37 27.9178 372.15 29.7001 372.669C33.0427 373.67 36.4673 374.17 39.9027 374.159C44.0437 374.222 48.1683 373.493 52.1365 371.998C53.7614 371.384 55.3054 370.47 56.7182 369.286C57.3673 368.834 57.9208 368.192 58.3318 367.414C58.7429 366.636 58.9995 365.744 59.08 364.815C59.08 362.43 57.2614 360.254 54.262 358.6C53.774 358.332 53.2583 358.078 52.7151 357.84C48.5754 356.17 44.2483 355.36 39.9027 355.441C33.8213 355.441 28.3893 356.827 24.8821 358.987C24.2918 359.346 23.7234 359.759 23.1817 360.224C22.5183 360.676 21.9503 361.322 21.525 362.108C21.0998 362.893 20.8297 363.796 20.7373 364.74V364.74Z" fill="black" fill-opacity="0.31"/>
<path opacity="0.6" d="M43.9886 367.289C44.562 365.982 44.7451 364.458 44.5046 362.995C44.2641 361.532 43.616 360.227 42.6778 359.315C42.3267 358.801 42.0938 358.174 42.0043 357.505C41.9148 356.835 41.9721 356.147 42.17 355.515C42.17 355.515 35.4745 361.104 38.8872 367.512L43.9886 367.289Z" fill="black" fill-opacity="0.2"/>
<path opacity="0.6" d="M42.3471 367.482C42.6048 366.893 42.6869 366.207 42.5786 365.549C42.4703 364.89 42.1787 364.302 41.7566 363.891C41.5994 363.658 41.4954 363.375 41.4558 363.073C41.4163 362.771 41.4427 362.461 41.5323 362.177C41.5323 362.177 38.5211 364.695 40.0562 367.572L42.3471 367.482Z" fill="black" fill-opacity="0.2"/>
<path opacity="0.1" d="M42.3471 367.482C42.6048 366.893 42.6869 366.207 42.5786 365.549C42.4703 364.89 42.1787 364.302 41.7566 363.891C41.5994 363.658 41.4954 363.375 41.4558 363.073C41.4163 362.771 41.4427 362.461 41.5323 362.177C41.5323 362.177 38.5211 364.695 40.0562 367.572L42.3471 367.482Z" fill="black" fill-opacity="0.31"/>
<path opacity="0.6" d="M24.9529 370.359C26.5913 371.384 28.3192 372.165 30.1014 372.683C35.5688 371.089 51.2507 365.932 54.6634 358.54C54.1753 358.272 53.6597 358.019 53.1165 357.78C50.9319 361.014 42.0518 372.207 24.9529 370.359Z" fill="#565387" fill-opacity="0.31"/>
<path opacity="0.6" d="M23.5947 360.165C25.6376 364.83 44.7676 370.016 52.5613 371.953C54.1863 371.34 55.7303 370.426 57.1431 369.241C46.0132 369.071 35.0786 365.529 25.2597 358.913C24.6812 359.278 24.1247 359.697 23.5947 360.165V360.165Z" fill="#565387" fill-opacity="0.31"/>
<path opacity="0.35" d="M47.9324 304.487C49.1133 305.873 48.7473 308.198 48.6174 310.18C48.3984 313.888 49.1492 317.584 50.7547 320.701C51.7467 322.624 53.1164 324.591 52.8803 326.856C52.6441 329.122 50.7547 330.657 49.7628 332.669C48.8411 334.845 48.5607 337.364 48.9716 339.777C49.2668 342.192 49.8573 344.561 50.0108 346.991C50.0781 347.548 50.0293 348.118 49.8691 348.645C49.6267 349.157 49.3055 349.603 48.9244 349.956C48.2943 350.671 47.7669 351.518 47.3657 352.46C47.1667 353.034 46.8999 353.567 46.5745 354.04C46.294 354.356 45.9698 354.603 45.618 354.77C42.988 355.99 40.1 355.99 37.47 354.77C34.8593 353.569 32.3701 351.983 30.0542 350.046C29.3964 349.609 28.808 349.023 28.3183 348.317C27.7642 347.273 27.472 346.042 27.4799 344.785C27.3736 342.087 27.7751 339.375 27.4799 336.692C27.0302 333.933 26.4104 331.222 25.6259 328.585C24.4744 323.425 24.6439 317.938 26.1101 312.907C26.6389 310.795 27.6294 308.915 28.9678 307.482C31.9436 304.621 36.2773 305.783 39.7255 303.935C42.3116 302.624 45.5589 301.551 47.9324 304.487Z" fill="black" fill-opacity="0.2"/>
</g>
<g opacity="0.6">
<path opacity="0.6" d="M614.428 276.097C613.402 277.156 612.602 278.522 612.099 280.07C611.596 281.618 611.406 283.3 611.547 284.964C612.48 295.918 615.29 320.851 622.305 334.89C622.722 335.724 623.155 336.519 623.604 337.274H661.498C661.498 337.274 669.22 301 669.764 285.009C669.822 283.163 669.542 281.324 668.946 279.636C668.35 277.949 667.454 276.457 666.327 275.277C660.647 269.316 647.315 256.35 639.758 257.214H639.604C639.604 257.214 636.699 253.056 614.428 276.097Z" fill="#D6DBE6" fill-opacity="0.1"/>
<path opacity="0.05" d="M611.558 284.904C612.491 295.858 615.302 320.791 622.316 334.83C623.828 335.65 625.363 336.454 626.898 337.214C636.427 341.924 645.485 344.666 644.02 337.214C643.687 335.731 643.194 334.312 642.556 332.997C633.865 313.921 637.833 272.311 639.734 257.14H639.58C639.58 257.14 636.699 252.982 614.44 276.022C613.412 277.083 612.61 278.451 612.107 280.002C611.604 281.553 611.415 283.238 611.558 284.904V284.904Z" fill="black" fill-opacity="0.31"/>
<path opacity="0.6" d="M623.379 335.978C623.379 338.079 624.796 340.016 627.193 341.581C628.832 342.607 630.56 343.387 632.342 343.906C635.685 344.907 639.109 345.408 642.545 345.396C646.68 345.442 650.796 344.698 654.755 343.191C656.38 342.577 657.924 341.663 659.337 340.478C659.986 340.027 660.539 339.385 660.95 338.607C661.361 337.829 661.618 336.937 661.698 336.007C661.698 333.623 659.88 331.447 656.88 329.793C656.392 329.524 655.877 329.271 655.333 329.033C651.205 327.368 646.89 326.557 642.556 326.633C636.475 326.633 631.043 328.019 627.536 330.18C626.946 330.539 626.377 330.952 625.835 331.417C625.165 331.872 624.592 332.523 624.164 333.317C623.737 334.111 623.467 335.024 623.379 335.978Z" fill="#D6DBE6" fill-opacity="0.1"/>
<path opacity="0.1" d="M622.978 335.978C622.978 338.079 624.395 340.016 626.792 341.581C628.43 342.607 630.158 343.387 631.94 343.906C635.283 344.907 638.708 345.408 642.143 345.396C646.284 345.459 650.409 344.731 654.377 343.236C656.002 342.622 657.546 341.708 658.959 340.523C659.608 340.072 660.161 339.43 660.572 338.652C660.983 337.874 661.24 336.982 661.32 336.052C661.32 333.668 659.502 331.492 656.502 329.838C656.014 329.569 655.499 329.316 654.956 329.078C650.822 327.394 646.499 326.569 642.155 326.633C636.074 326.633 630.642 328.019 627.134 330.18C626.544 330.539 625.976 330.952 625.434 331.417C624.764 331.872 624.191 332.524 623.763 333.318C623.335 334.112 623.066 335.024 622.978 335.978Z" fill="black" fill-opacity="0.31"/>
<path opacity="0.6" d="M646.229 338.556C646.803 337.249 646.986 335.725 646.745 334.262C646.505 332.799 645.856 331.494 644.918 330.583C644.567 330.068 644.334 329.441 644.245 328.772C644.155 328.102 644.213 327.414 644.41 326.782C644.41 326.782 637.715 332.371 641.128 338.779L646.229 338.556Z" fill="black" fill-opacity="0.2"/>
<path opacity="0.6" d="M644.588 338.72C644.845 338.131 644.927 337.445 644.819 336.786C644.711 336.127 644.419 335.539 643.997 335.128C643.84 334.895 643.736 334.612 643.696 334.31C643.657 334.008 643.683 333.699 643.773 333.414C643.773 333.414 640.762 335.933 642.297 338.809L644.588 338.72Z" fill="black" fill-opacity="0.2"/>
<path opacity="0.1" d="M644.588 338.72C644.845 338.131 644.927 337.445 644.819 336.786C644.711 336.127 644.419 335.539 643.997 335.128C643.84 334.895 643.736 334.612 643.696 334.31C643.657 334.008 643.683 333.699 643.773 333.414C643.773 333.414 640.762 335.933 642.297 338.809L644.588 338.72Z" fill="black" fill-opacity="0.31"/>
<path opacity="0.6" d="M627.193 341.536C628.832 342.562 630.56 343.343 632.342 343.861C637.809 342.267 653.491 337.11 656.904 329.718C656.416 329.45 655.9 329.196 655.357 328.958C653.172 332.252 644.292 343.429 627.193 341.536Z" fill="#565387" fill-opacity="0.31"/>
<path opacity="0.6" d="M625.835 331.387C627.878 336.052 647.008 341.238 654.802 343.176C656.427 342.562 657.971 341.648 659.384 340.463C648.254 340.293 637.319 336.751 627.5 330.135C626.922 330.5 626.365 330.919 625.835 331.387V331.387Z" fill="#565387" fill-opacity="0.31"/>
<path opacity="0.35" d="M650.173 275.709C651.354 277.095 650.988 279.42 650.858 281.402C650.639 285.11 651.39 288.806 652.995 291.924C653.987 293.846 655.357 295.813 655.121 298.079C654.885 300.344 652.995 301.879 652.003 303.891C651.082 306.068 650.801 308.586 651.212 311C651.507 313.414 652.098 315.784 652.251 318.213C652.319 318.77 652.27 319.34 652.11 319.867C651.867 320.379 651.546 320.825 651.165 321.178C650.535 321.893 650.008 322.74 649.606 323.682C649.407 324.256 649.141 324.789 648.815 325.262C648.535 325.578 648.21 325.825 647.859 325.992C645.229 327.212 642.341 327.212 639.711 325.992C637.1 324.791 634.611 323.206 632.295 321.268C631.637 320.831 631.049 320.245 630.559 319.539C630.005 318.495 629.713 317.264 629.72 316.007C629.614 313.31 630.016 310.597 629.72 307.915C629.271 305.155 628.651 302.445 627.867 299.807C626.715 294.647 626.885 289.16 628.351 284.129C628.879 282.017 629.87 280.137 631.208 278.704C634.184 275.843 638.518 277.005 641.966 275.157C644.552 273.846 647.8 272.773 650.173 275.709Z" fill="black" fill-opacity="0.2"/>
</g>
<g opacity="0.6">
<path opacity="0.6" d="M719.301 33.2338C717.529 35.0681 716.146 37.4306 715.278 40.1079C714.41 42.7852 714.084 45.6931 714.33 48.5692C715.947 67.526 720.812 110.641 732.94 134.918C733.656 136.359 734.404 137.735 735.184 139.046H800.733C800.733 139.046 814.101 76.2593 814.986 48.6288C815.089 45.4387 814.61 42.2616 813.586 39.3419C812.562 36.4223 811.022 33.838 809.082 31.7882C799.257 21.4901 776.195 -0.998776 763.111 0.491541H762.851C762.851 0.491541 757.821 -6.61728 719.301 33.2338Z" fill="#D6DBE6" fill-opacity="0.1"/>
<path opacity="0.05" d="M714.329 48.5687C715.947 67.5256 720.812 110.64 732.939 134.918C735.549 136.408 738.218 137.734 740.863 139.046C757.395 147.198 773.018 152.012 770.491 139.046C769.915 136.483 769.065 134.031 767.964 131.758C752.931 98.7478 759.887 26.7654 763.075 0.610333H762.815C762.815 0.610333 757.832 -6.573 719.312 33.2781C717.543 35.1065 716.162 37.4609 715.292 40.1298C714.422 42.7988 714.091 45.6986 714.329 48.5687V48.5687Z" fill="black" fill-opacity="0.31"/>
<path opacity="0.6" d="M734.782 136.826C734.782 140.462 737.238 143.815 741.383 146.528C744.22 148.304 747.212 149.655 750.298 150.552C756.104 152.259 762.05 153.095 768.011 153.04C775.178 153.154 782.316 151.898 789.184 149.315C791.99 148.255 794.656 146.678 797.096 144.635C799.694 142.325 801.182 139.672 801.182 136.841C801.182 132.712 798.029 128.957 792.845 126.095C792.011 125.629 791.121 125.191 790.176 124.784C783.018 121.9 775.537 120.501 768.023 120.641C757.49 120.641 748.114 123.04 742.044 126.781C741.023 127.403 740.04 128.121 739.104 128.927C736.329 131.252 734.782 133.949 734.782 136.826Z" fill="#D6DBE6" fill-opacity="0.1"/>
<path opacity="0.1" d="M734.085 136.826C734.085 140.462 736.541 143.815 740.686 146.528C743.523 148.304 746.516 149.655 749.602 150.552C755.408 152.259 761.353 153.095 767.315 153.04C774.481 153.154 781.619 151.898 788.488 149.315C791.293 148.255 793.959 146.678 796.399 144.635C798.997 142.325 800.485 139.672 800.485 136.841C800.485 132.712 797.332 128.957 792.148 126.095C791.314 125.629 790.424 125.191 789.48 124.784C782.321 121.9 774.84 120.501 767.327 120.641C756.793 120.641 747.417 123.04 741.348 126.781C740.327 127.403 739.344 128.121 738.407 128.927C735.62 131.252 734.085 133.949 734.085 136.826Z" fill="black" fill-opacity="0.31"/>
<path opacity="0.6" d="M774.293 141.237C775.283 138.973 775.597 136.336 775.179 133.805C774.761 131.273 773.638 129.014 772.014 127.437C772.014 127.437 769.747 123.994 771.141 120.865C771.141 120.865 759.556 130.522 765.461 141.625L774.293 141.237Z" fill="black" fill-opacity="0.2"/>
<path opacity="0.6" d="M771.471 141.565C771.917 140.545 772.058 139.357 771.869 138.217C771.681 137.077 771.175 136.06 770.444 135.35C770.174 134.942 769.996 134.451 769.928 133.927C769.859 133.403 769.903 132.865 770.054 132.37C770.054 132.37 764.835 136.721 767.504 141.714L771.471 141.565Z" fill="black" fill-opacity="0.2"/>
<path opacity="0.1" d="M771.471 141.565C771.917 140.545 772.058 139.357 771.869 138.217C771.681 137.077 771.175 136.06 770.444 135.35C770.174 134.942 769.996 134.451 769.928 133.927C769.859 133.403 769.903 132.865 770.054 132.37C770.054 132.37 764.835 136.721 767.504 141.714L771.471 141.565Z" fill="black" fill-opacity="0.31"/>
<path opacity="0.6" d="M741.383 146.527C744.22 148.304 747.212 149.654 750.298 150.551C759.745 147.779 786.905 138.867 792.809 126.095C791.975 125.628 791.085 125.191 790.141 124.784C786.315 130.372 770.952 149.732 741.383 146.527Z" fill="#565387" fill-opacity="0.31"/>
<path opacity="0.6" d="M739.021 128.897C742.564 136.96 775.628 145.947 789.125 149.3C791.931 148.24 794.597 146.663 797.037 144.62C777.809 144.304 758.922 138.171 741.961 126.736C740.94 127.363 739.957 128.086 739.021 128.897Z" fill="#565387" fill-opacity="0.31"/>
<path opacity="0.35" d="M781.107 32.5778C783.056 34.9921 782.512 38.9861 782.288 42.4139C781.91 48.8264 783.208 55.2187 785.984 60.6107C787.708 63.9341 790.082 67.332 789.657 71.2664C789.232 75.2009 785.984 77.8387 784.26 81.3112C782.536 84.7836 782.394 89.4334 782.902 93.6212C783.41 97.809 784.437 101.892 784.697 106.11C784.812 107.075 784.727 108.061 784.449 108.971C784.027 109.857 783.469 110.627 782.808 111.237C781.716 112.47 780.801 113.932 780.103 115.559C779.76 116.555 779.298 117.48 778.734 118.301C778.249 118.848 777.689 119.278 777.08 119.568C772.652 121.922 767.551 121.505 762.981 119.657C758.466 117.581 754.162 114.84 750.157 111.49C749.021 110.737 748.004 109.726 747.157 108.509C746.2 106.697 745.698 104.562 745.717 102.384C745.528 97.7196 746.225 93.0251 745.788 88.3753C745.351 83.7255 743.638 79.0459 742.587 74.3663C740.592 65.4408 740.882 55.9482 743.414 47.2425C744.326 43.5884 746.037 40.3337 748.35 37.8535C753.499 32.9057 760.985 34.8729 766.949 31.7283C771.412 29.3438 777.021 27.4958 781.107 32.5778Z" fill="black" fill-opacity="0.2"/>
</g>
<path d="M386.191 155.038C383.212 158.119 380.887 162.088 379.428 166.587C377.968 171.085 377.419 175.972 377.831 180.805C380.547 212.654 388.706 285.128 409.088 325.858C410.3 328.282 411.556 330.587 412.855 332.773H522.971C522.971 332.773 545.407 227.348 546.919 180.895C547.091 175.523 546.28 170.174 544.547 165.263C542.814 160.351 540.207 156.011 536.928 152.579C520.396 135.276 481.688 97.5712 459.7 100.075H459.251C459.251 100.075 450.891 88.1077 386.191 155.038Z" fill="#D6DBE6" fill-opacity="0.1"/>
<path opacity="0.05" d="M377.83 180.806C380.546 212.654 388.706 285.128 409.088 325.858C413.469 328.243 417.944 330.583 422.384 332.773C450.064 346.469 476.409 354.547 472.146 332.773C471.18 328.471 469.753 324.355 467.907 320.538C442.648 265.098 454.327 144.189 459.641 100.12H459.192C459.192 100.12 450.82 88.0483 386.12 154.978C383.146 158.075 380.831 162.058 379.384 166.567C377.936 171.077 377.402 175.97 377.83 180.806V180.806Z" fill="black" fill-opacity="0.31"/>
<path d="M412.205 329.063C412.205 335.173 416.327 340.821 423.282 345.352C428.047 348.333 433.072 350.598 438.255 352.103C447.979 354.96 457.935 356.36 467.919 356.276C481.439 356.276 493.827 353.921 503.474 350.016C508.19 348.235 512.67 345.583 516.771 342.148C521.14 338.258 523.632 333.802 523.632 329.048C523.632 322.133 518.341 315.799 509.627 311C508.217 310.225 506.722 309.49 505.139 308.794C495.279 304.457 482.231 301.834 467.919 301.834C450.206 301.834 434.465 305.858 424.227 312.147C422.509 313.188 420.855 314.389 419.279 315.739C414.78 319.688 412.205 324.234 412.205 329.063Z" fill="#D6DBE6" fill-opacity="0.1"/>
<path opacity="0.1" d="M411.024 329.063C411.024 335.173 415.146 340.821 422.101 345.352C426.866 348.333 431.891 350.598 437.074 352.103C446.798 354.96 456.754 356.36 466.738 356.276C480.259 356.276 492.646 353.921 502.293 350.016C507.009 348.235 511.489 345.583 515.59 342.148C519.959 338.258 522.451 333.802 522.451 329.048C522.451 322.133 517.16 315.799 508.446 311C507.037 310.225 505.541 309.49 503.958 308.794C494.098 304.457 481.05 301.834 466.738 301.834C449.025 301.834 433.284 305.858 423.046 312.147C421.328 313.188 419.674 314.389 418.098 315.739C413.599 319.688 411.024 324.234 411.024 329.063Z" fill="black" fill-opacity="0.31"/>
<path d="M478.582 336.469C478.582 336.469 484.557 324.01 474.756 313.28C474.756 313.28 470.953 307.497 473.28 302.251C473.28 302.251 453.819 318.466 463.738 337.125L478.582 336.469Z" fill="black" fill-opacity="0.2"/>
<path d="M473.835 337.065C474.582 335.353 474.819 333.36 474.503 331.446C474.187 329.532 473.338 327.825 472.111 326.633C472.111 326.633 470.398 324.025 471.449 321.67C471.449 321.67 462.687 328.972 467.151 337.363L473.835 337.065Z" fill="black" fill-opacity="0.2"/>
<path opacity="0.1" d="M473.835 337.065C474.582 335.353 474.819 333.36 474.503 331.446C474.187 329.532 473.338 327.825 472.111 326.633C472.111 326.633 470.398 324.025 471.449 321.67C471.449 321.67 462.687 328.972 467.151 337.363L473.835 337.065Z" fill="black" fill-opacity="0.31"/>
<path d="M423.305 345.351C428.07 348.332 433.096 350.598 438.279 352.102C454.161 347.453 499.684 332.475 509.638 311.014C508.229 310.239 506.733 309.504 505.151 308.809C498.763 318.227 472.902 350.731 423.305 345.351Z" fill="#565387" fill-opacity="0.31"/>
<path d="M419.314 315.753C425.219 329.3 480.825 344.382 503.474 350.031C508.19 348.249 512.67 345.598 516.771 342.162C484.477 341.642 452.754 331.354 424.262 312.162C422.544 313.202 420.891 314.403 419.314 315.753V315.753Z" fill="#565387" fill-opacity="0.31"/>
<path opacity="0.35" d="M490.06 153.95C493.331 157.989 492.421 164.725 492.067 170.478C491.432 181.25 493.614 191.988 498.279 201.044C501.172 206.633 505.175 212.341 504.443 218.928C503.711 225.515 498.267 229.971 495.374 235.813C492.481 241.655 492.244 249.465 493.083 256.499C493.921 263.533 495.657 270.389 496.106 277.468C496.298 279.091 496.151 280.751 495.681 282.281C494.988 283.766 494.069 285.063 492.977 286.097C491.141 288.167 489.603 290.622 488.43 293.354C487.852 295.028 487.076 296.581 486.128 297.959C485.311 298.882 484.366 299.604 483.341 300.091C475.913 304.04 467.34 303.339 459.653 300.225C451.965 297.11 444.998 291.79 438.114 286.499C436.202 285.225 434.493 283.517 433.071 281.462C431.459 278.421 430.611 274.837 430.639 271.178C430.32 263.339 431.501 255.441 430.757 247.646C429.977 239.524 427.155 231.968 425.372 224.099C422.025 209.111 422.513 193.173 426.765 178.555C428.525 172.594 431.028 166.633 435.032 162.803C443.687 154.487 456.287 157.84 466.277 152.504C473.728 148.525 483.14 145.396 490.06 153.95Z" fill="black" fill-opacity="0.2"/>
<path opacity="0.1" d="M0 778.107C7.32677 782.18 15.0034 785.699 22.5771 789.207C50.5568 801.951 78.9583 814.805 109.017 819.179C165.429 827.382 223.693 805.17 279.148 818.99C325.609 830.557 364.033 866.002 409.424 881.787C430.53 889.125 452.49 892 474.645 892H477.506C480.25 891.963 482.973 891.889 485.676 891.778C508.14 890.867 530.697 887.282 552.718 882.697C622.25 868.266 693.018 841.813 746.178 793.115C591.431 762.554 272.583 715.732 0 778.107Z" fill="black"/>
<path d="M600.764 846.998C598.367 844.589 596.113 841.747 595.413 838.295C594.713 834.843 596.082 830.691 599.149 829.414C602.575 827.994 606.249 830.525 609.027 833.155C611.806 835.786 614.996 838.706 618.628 838.151C616.757 836.32 615.358 833.998 614.566 831.411C613.775 828.824 613.618 826.059 614.111 823.387C614.27 822.284 614.704 821.248 615.366 820.39C617.27 818.169 620.728 819.135 623.002 820.867C630.205 826.417 632.263 836.996 632.315 846.565C633.045 843.113 632.428 839.516 632.448 835.975C632.469 832.434 633.364 828.515 636.132 826.606C637.873 825.601 639.83 825.114 641.802 825.196C645.064 825.063 648.697 825.418 650.92 827.994C653.688 831.191 652.978 836.552 650.559 840.071C648.141 843.59 644.488 845.799 641.123 848.23C638.422 849.967 636.118 852.339 634.383 855.168C634.177 855.564 634.008 855.98 633.879 856.411H613.401C608.814 853.903 604.563 850.737 600.764 846.998V846.998Z" fill="black"/>
<path d="M788.132 672.728C788.132 672.728 864.62 732.793 709.348 799.775C709.348 799.775 681.842 731.062 722.386 680.92C730.259 671.144 741.183 664.822 753.087 663.153C764.992 661.484 777.051 664.582 786.979 671.862L788.132 672.728Z" fill="black"/>
<path d="M787.288 671.529C787.288 671.529 713.639 722.082 709.348 799.765" stroke="#535461" stroke-miterlimit="10"/>
<path d="M760.008 733.26C751.519 740.031 715.512 743.095 715.512 743.095C715.512 743.095 728.766 706.863 737.256 700.08C741.338 696.877 746.427 695.544 751.415 696.371C756.404 697.199 760.887 700.119 763.889 704.496C766.89 708.873 768.167 714.352 767.44 719.74C766.713 725.128 764.042 729.987 760.008 733.26V733.26Z" fill="black"/>
<path opacity="0.25" d="M760.008 733.26C751.519 740.031 715.512 743.095 715.512 743.095C715.512 743.095 728.766 706.863 737.256 700.08C741.338 696.877 746.427 695.544 751.415 696.371C756.404 697.199 760.887 700.119 763.889 704.496C766.89 708.873 768.167 714.352 767.44 719.74C766.713 725.128 764.042 729.987 760.008 733.26V733.26Z" fill="black"/>
</svg>
