<svg width="272" height="401" preserveAspectRatio="none" viewBox="0 0 272 401" fill="none" xmlns="http://www.w3.org/2000/svg">
<path d="M66.7422 0C109.163 46.3708 120.369 310.286 122.866 394.882C122.93 396.789 122.994 398.596 123.026 400.304H230.408C231.721 398.497 232.937 396.714 234.09 394.882C297.738 297.734 262.424 181.25 260.567 175.357C265.402 193.876 243.535 247.55 218.818 299.541C203.739 139.682 74.8103 8.07097 66.7422 0Z" fill="#080A0B" fill-opacity="0.48"/>
<path d="M37.258 365.789C17.1375 365.789 0.826538 353.176 0.826538 337.617C0.826538 322.059 17.1375 309.446 37.258 309.446C57.3785 309.446 73.6895 322.059 73.6895 337.617C73.6895 353.176 57.3785 365.789 37.258 365.789Z" fill="#191A1A" fill-opacity="0.86"/>
</svg>
